<?xml version="1.0" encoding="utf-8"?>
<!-- Generator: Adobe Illustrator 27.6.1, SVG Export Plug-In . SVG Version: 6.00 Build 0)  -->
<svg version="1.1" xmlns="http://www.w3.org/2000/svg" xmlns:xlink="http://www.w3.org/1999/xlink" x="0px" y="0px"
	 viewBox="0 0 500 500" style="enable-background:new 0 0 500 500;" xml:space="preserve">
<style type="text/css">
	.st0{display:none;}
	.st1{display:inline;}
	.st2{fill:#EBEBEB;}
	.st3{fill:#F0F0F0;}
	.st4{fill:#F5F5F5;}
	.st5{fill:#E6E6E6;}
	.st6{fill:#E0E0E0;}
	.st7{fill:#FAFAFA;}
	.st8{fill:#407BFF;}
	.st9{opacity:0.9;fill:#FFFFFF;}
	.st10{opacity:0.3;}
	.st11{fill:#FFFFFF;}
	.st12{opacity:0.5;fill:#FFFFFF;}
	.st13{fill:#263238;}
	.st14{opacity:0.5;}
	.st15{opacity:0.7;fill:#FFFFFF;}
	.st16{fill:#FFC2BC;}
	.st17{opacity:0.1;}
	.st18{opacity:0.2;fill:#FFFFFF;}
	.st19{opacity:0.2;enable-background:new    ;}
	.st20{fill:#EC837E;}
	.st21{opacity:0.1;enable-background:new    ;}
	.st22{opacity:0.4;}
	.st23{opacity:0.2;}
</style>
<g id="Background_Complete" class="st0">
	<g class="st1">
		<rect x="416.78" y="398.49" class="st2" width="33.12" height="0.25"/>
		<rect x="322.53" y="401.21" class="st2" width="8.69" height="0.25"/>
		<rect x="396.59" y="389.21" class="st2" width="19.19" height="0.25"/>
		<rect x="52.46" y="390.89" class="st2" width="43.19" height="0.25"/>
		<rect x="104.56" y="390.89" class="st2" width="6.33" height="0.25"/>
		<rect x="131.47" y="395.11" class="st2" width="93.68" height="0.25"/>
		<g>
			<path class="st2" d="M238.4,337.8H45.3c-3.15,0-5.71-2.56-5.71-5.71V60.66c0-3.15,2.56-5.71,5.71-5.71h193.1
				c3.15,0,5.71,2.56,5.71,5.71v271.43C244.11,335.24,241.55,337.8,238.4,337.8z M45.3,55.2c-3.01,0-5.46,2.45-5.46,5.46v271.43
				c0,3.01,2.45,5.46,5.46,5.46h193.1c3.01,0,5.46-2.45,5.46-5.46V60.66c0-3.01-2.45-5.46-5.46-5.46H45.3z"/>
			<path class="st2" d="M454.7,337.8H261.6c-3.15,0-5.71-2.56-5.71-5.71V60.66c0-3.15,2.56-5.71,5.71-5.71h193.1
				c3.15,0,5.71,2.56,5.71,5.71v271.43C460.41,335.24,457.85,337.8,454.7,337.8z M261.6,55.2c-3.01,0-5.46,2.45-5.46,5.46v271.43
				c0,3.01,2.45,5.46,5.46,5.46h193.1c3.01,0,5.46-2.45,5.46-5.46V60.66c0-3.01-2.45-5.46-5.46-5.46H261.6z"/>
		</g>
		<rect y="382.4" class="st2" width="500" height="0.25"/>
	</g>
	<g class="st1">
		<g>
			<g>
				<path class="st2" d="M90.88,257.13c-6.26-1.94-10.39-3.21-15.28-4.72c-1.12-0.35-0.82-2,0.35-1.94
					c5.71,0.3,10.39,0.55,17.61,0.93c-4.16-7.24-6.62-11.75-9.42-17.41c-0.51-1.04,0.86-1.97,1.63-1.1
					c3.76,4.23,6.91,7.67,11.95,13.08c1.2-7,2.6-13.45,4.34-19.93c0.31-1.17,2.06-0.86,1.95,0.34c-0.47,5.26-0.64,10.56-0.51,15.68
					c0.23,0.08,0.24,0.09,0.48,0.17c4.23-4.82,8.68-9.46,13.31-13.91c0.89-0.86,2.22,0.37,1.46,1.34
					c-4.49,5.7-8.65,11.66-12.44,17.85c6.05-2.28,12.12-4.49,18.23-6.63c1.14-0.4,1.87,1.21,0.82,1.8
					c-6.33,3.59-12.59,7.26-18.84,11.06c6.59,2.1,10.89,3.47,16.11,5.13c1.11,0.35,0.81,2.01-0.36,1.94
					c-5.34-0.32-9.77-0.59-16.55-1c3.27,3.83,5.55,6.46,8.19,9.43c0.77,0.87-0.32,2.13-1.29,1.49c-3.33-2.21-6.25-4.17-10.51-7.03
					c0.43,3.4,0.81,6.04,1.26,8.62c0.21,1.18-1.47,1.65-1.9,0.53c-1.11-2.83-2.12-5.65-3.4-9.38c-4.81,23.02-3.56,45.33,1.09,68.2
					c-2.31-0.42-3.46-0.62-5.76-1.04c-3.37-23.46-2.5-44.46,2.7-67.52c-2.89,2.98-5.01,5.23-7.04,7.5c-0.8,0.9-2.21-0.14-1.59-1.17
					c1.36-2.25,2.84-4.55,4.81-7.51c-5.15,1.13-8.67,1.91-12.56,2.78c-1.14,0.26-1.71-1.33-0.66-1.86
					C82.66,261.05,85.98,259.45,90.88,257.13z"/>
			</g>
			<g>
				<path class="st3" d="M82.75,265.08c4.75-2.52,8.16-4.33,11.74-6.22c1.38-0.73,0.58-2.84-0.94-2.47
					c-4.46,1.09-8.61,2.11-14.49,3.56c2.36-6.8,3.85-11.38,5.31-16.42c0.43-1.49-1.61-2.39-2.42-1.05c-2.38,3.95-4.65,7.61-8,12.91
					c-2.03-5.42-4.11-10.45-6.39-15.39c-0.68-1.47-2.88-0.67-2.49,0.89c1,3.92,1.83,7.86,2.46,11.74c-0.21,0.13-0.22,0.13-0.44,0.26
					c-3.79-2.96-7.69-5.8-11.66-8.51c-1.37-0.93-2.87,0.96-1.65,2.07c4.19,3.83,8.2,7.86,12.01,12.06
					c-5.14-0.9-10.29-1.75-15.44-2.55c-1.6-0.25-2.16,2.04-0.63,2.57c5.69,1.97,11.36,4.01,17.03,6.13
					c-5.06,2.74-8.65,4.68-12.49,6.76c-1.38,0.75-0.56,2.84,0.96,2.46c4.12-1.04,8.01-2.03,13.45-3.4
					c-1.95,3.41-3.44,5.99-4.97,8.58c-0.79,1.34,0.97,2.71,2.08,1.63c2.17-2.12,4.32-4.25,7.17-7.06c0.12,2.03,0.22,3.78,0.28,5.42
					c0.06,1.6,2.38,1.74,2.64,0.16c0.33-1.97,0.65-4.08,1.01-6.57c9.02,21.71,11.96,43.86,11.66,67.21c2.19-0.84,3.28-1.26,5.47-2.1
					c-1.07-23.67-5.85-44.15-15.26-65.83c2.07,1.46,3.81,2.7,5.4,3.87c1.3,0.96,2.87-0.8,1.76-1.98c-1.08-1.15-2.27-2.38-3.64-3.77
					c4.01,0.11,7.06,0.2,10.04,0.3c1.57,0.05,1.91-2.19,0.4-2.61C89.79,266.93,86.76,266.12,82.75,265.08z"/>
			</g>
			<g>
				<path class="st4" d="M103.48,277.7c-3.55-1.88-6.08-3.22-8.75-4.64c-0.98-0.52-0.41-2.01,0.66-1.75
					c3.33,0.82,6.4,1.57,10.79,2.65c-1.75-5.05-2.85-8.42-3.93-12.17c-0.3-1.06,1.14-1.69,1.71-0.75c1.78,2.95,3.45,5.64,5.94,9.59
					c1.51-4.05,3.07-7.8,4.78-11.49c0.48-1.04,2.05-0.47,1.76,0.64c-0.77,2.97-1.4,5.97-1.88,8.91c0.14,0.08,0.14,0.08,0.28,0.16
					c2.88-2.25,5.84-4.4,8.86-6.46c0.97-0.66,2.03,0.69,1.16,1.48c-3.15,2.87-6.17,5.88-9.03,9.04c3.85-0.67,7.7-1.31,11.56-1.9
					c1.13-0.18,1.53,1.45,0.45,1.82c-4.25,1.47-8.48,2.99-12.71,4.57c3.77,2.04,6.43,3.48,9.3,5.03c0.97,0.53,0.4,2.01-0.68,1.74
					c-3.08-0.78-5.96-1.51-10.02-2.54c1.47,2.57,2.58,4.49,3.73,6.44c0.56,0.95-0.68,1.92-1.47,1.15c-1.63-1.6-3.24-3.18-5.38-5.3
					c-0.1,1.59-0.17,2.95-0.22,4.22c-0.04,1.13-1.68,1.24-1.87,0.12c-0.26-1.52-0.5-3.13-0.78-5.06
					c-6.58,15.83-8.72,31.98-8.5,48.99c-1.59-0.61-2.39-0.92-3.99-1.53c0.78-17.26,4.26-32.18,11.12-47.99
					c-1.62,1.14-2.96,2.1-4.19,3c-0.92,0.68-2.03-0.57-1.25-1.4c0.84-0.9,1.77-1.86,2.86-2.98c-3.03,0.08-5.31,0.15-7.56,0.22
					c-1.11,0.04-1.35-1.55-0.28-1.85C98.19,279.08,100.45,278.48,103.48,277.7z"/>
			</g>
			<path class="st3" d="M78.79,382.23h29.82c2.09,0,3.81-1.62,3.94-3.7l3.16-51.44c0.14-2.27-44.16-2.27-44.02,0l3.16,51.44
				C74.98,380.61,76.7,382.23,78.79,382.23z"/>
			<path class="st5" d="M76.98,263.38c-0.79-0.65-1.19-1.66-1.07-2.67l0.67-5.7l-1.53,2.65c-0.91,1.57-2.98,1.99-4.43,0.9
				l-2.99-2.26l2.73,4.41c0.78,1.26,0.53,2.91-0.6,3.88l-3.53,3.03l3.47-0.79c1.52-0.35,3.05,0.52,3.53,2l1.19,3.64l0.76-3.87
				c0.34-1.74,2.11-2.81,3.81-2.31l2.33,0.68L76.98,263.38z"/>
			<path class="st4" d="M96.87,253.56c0.58-0.48,0.87-1.21,0.78-1.95l-0.49-4.16l1.12,1.94c0.66,1.15,2.18,1.45,3.23,0.66l2.18-1.65
				l-2,3.22c-0.57,0.92-0.39,2.12,0.44,2.83l2.58,2.21l-2.53-0.58c-1.11-0.25-2.23,0.38-2.58,1.46l-0.87,2.66l-0.56-2.83
				c-0.25-1.27-1.54-2.05-2.78-1.69l-1.7,0.5L96.87,253.56z"/>
			<path class="st5" d="M108.66,277.43c0.41-0.34,0.62-0.87,0.56-1.4l-0.35-2.99l0.8,1.39c0.47,0.82,1.56,1.04,2.32,0.47l1.57-1.18
				l-1.43,2.31c-0.41,0.66-0.28,1.52,0.31,2.03l1.85,1.59l-1.82-0.41c-0.8-0.18-1.6,0.27-1.85,1.05l-0.63,1.91l-0.4-2.03
				c-0.18-0.91-1.1-1.47-2-1.21l-1.22,0.36L108.66,277.43z"/>
		</g>
		<g>
			<path class="st4" d="M384.63,143.39h-26.17c-0.73,0-1.32-0.59-1.32-1.32v-5.09c0-0.73,0.59-1.32,1.32-1.32h26.17
				c0.73,0,1.32,0.59,1.32,1.32v5.09C385.95,142.8,385.36,143.39,384.63,143.39z"/>
			<path class="st4" d="M375.84,152.97h-26.17c-0.73,0-1.32-0.59-1.32-1.32v-5.09c0-0.73,0.59-1.32,1.32-1.32h26.17
				c0.73,0,1.32,0.59,1.32,1.32v5.09C377.16,152.38,376.57,152.97,375.84,152.97z"/>
			<path class="st3" d="M405.99,152.97h-26.17c-0.73,0-1.32-0.59-1.32-1.32v-5.09c0-0.73,0.59-1.32,1.32-1.32h26.17
				c0.73,0,1.32,0.59,1.32,1.32v5.09C407.31,152.38,406.72,152.97,405.99,152.97z"/>
		</g>
		<g>
			<path class="st4" d="M419.98,82.33h-27.92c-0.73,0-1.32-0.59-1.32-1.32v-5.56c0-0.73,0.59-1.32,1.32-1.32h27.92
				c0.73,0,1.32,0.59,1.32,1.32v5.56C421.29,81.74,420.7,82.33,419.98,82.33z"/>
			<path class="st4" d="M419.98,102.67h-27.92c-0.73,0-1.32-0.59-1.32-1.32v-5.56c0-0.73,0.59-1.32,1.32-1.32h27.92
				c0.73,0,1.32,0.59,1.32,1.32v5.56C421.29,102.08,420.7,102.67,419.98,102.67z"/>
			<path class="st4" d="M410.64,92.49h-27.92c-0.73,0-1.32-0.59-1.32-1.32v-5.56c0-0.73,0.59-1.32,1.32-1.32h27.92
				c0.73,0,1.32,0.59,1.32,1.32v5.56C411.96,91.9,411.37,92.49,410.64,92.49z"/>
			<path class="st3" d="M442.63,92.49h-27.92c-0.73,0-1.32-0.59-1.32-1.32v-5.56c0-0.73,0.59-1.32,1.32-1.32h27.92
				c0.73,0,1.32,0.59,1.32,1.32v5.56C443.95,91.9,443.36,92.49,442.63,92.49z"/>
		</g>
		<g>
			<g>
				<g>
					<g>
						
							<rect x="218.94" y="317.68" transform="matrix(-1 -1.224647e-16 1.224647e-16 -1 629.917 640.8805)" class="st4" width="192.05" height="5.52"/>
						
							<rect x="409.54" y="317.68" transform="matrix(-1 -1.224647e-16 1.224647e-16 -1 862.1065 640.8805)" class="st2" width="43.02" height="5.52"/>
					</g>
					<g>
						<polygon class="st6" points="238.89,336.62 238.89,323.2 229.95,323.2 						"/>
						<polygon class="st7" points="234.42,336.62 225.47,323.2 229.95,323.2 238.89,336.62 						"/>
					</g>
					<g>
						<polygon class="st6" points="445.56,336.62 445.56,323.2 436.61,323.2 						"/>
						<polygon class="st7" points="441.08,336.62 432.14,323.2 436.61,323.2 445.56,336.62 						"/>
					</g>
				</g>
				<path class="st3" d="M421.83,318.43h5.06c2.28,0,4.1-1.89,4.02-4.16l-0.64-19.06h-11.82l-0.64,19.06
					C417.73,316.55,419.56,318.43,421.83,318.43z"/>
				<g>
					
						<ellipse transform="matrix(0.7071 -0.7071 0.7071 0.7071 -96.0805 364.9046)" class="st3" cx="392.44" cy="298.43" rx="11.22" ry="11.22"/>
					<g>
						<path class="st2" d="M391.66,318.26h1.57v-7.43h-0.78c-6.84,0-12.4-5.56-12.4-12.4c0-6.83,5.56-12.4,12.4-12.4v-1.57
							c-7.7,0-13.96,6.26-13.96,13.96c0,7.44,5.84,13.53,13.18,13.94V318.26z"/>
					</g>
					<path class="st2" d="M385.85,318.43h13.34l0,0c0-1.65-1.34-2.99-2.99-2.99h-7.36C387.19,315.44,385.85,316.78,385.85,318.43
						L385.85,318.43z"/>
				</g>
				<g>
					<polygon class="st4" points="422.59,318.43 412.04,307.89 401.5,318.43 					"/>
					<polygon class="st5" points="412.04,307.89 422.59,318.43 412.04,318.43 					"/>
				</g>
				<path class="st4" d="M338.56,304.64c0.05,1,0.08,1.8,0.08,2.33c0,4.6-2.07,8.71-5.32,11.47h-18.53
					c-3.25-2.76-5.32-6.87-5.32-11.47c0-0.53,0.03-1.33,0.08-2.33H338.56z"/>
				<path class="st2" d="M335.97,312.85c0,2.24,1.01,4.24,2.59,5.59h9.03c1.02-0.87,1.8-2.02,2.23-3.32
					c0.18,0.03,0.36,0.05,0.55,0.05c1.81,0,3.83-1.44,3.83-3.36c0-2.01-1.16-3.36-2.89-3.36c-0.39,0-0.79,0.07-1.18,0.19
					c0-0.04,0-0.09,0-0.13c-0.02-0.97-0.8-1.74-1.77-1.74H337.8c-0.97,0-1.75,0.78-1.77,1.74
					C335.99,310.51,335.97,312.15,335.97,312.85z M350.07,314.02c0.06-0.38,0.1-0.77,0.1-1.17c0-0.54-0.01-1.63-0.04-3.02
					c0.38-0.17,0.78-0.26,1.16-0.26c1.64,0,1.77,1.71,1.77,2.24c0,1.24-1.48,2.24-2.71,2.24
					C350.26,314.04,350.16,314.03,350.07,314.02z"/>
				<g>
					<g>
						<polygon class="st3" points="252.44,318.43 253.91,301.54 232.5,301.54 231.02,318.43 						"/>
						<polygon class="st6" points="252.44,318.43 253.91,301.54 255.07,301.54 253.59,318.43 						"/>
						<polygon class="st7" points="250.4,316.71 251.58,303.27 234.53,303.27 233.35,316.71 						"/>
						<polygon class="st2" points="249.1,315.6 250.08,304.37 235.84,304.37 234.85,315.6 						"/>
					</g>
					<g>
						<g>
							<polygon class="st3" points="276.58,318.43 255.07,318.43 257.46,291.15 278.97,291.15 							"/>
							<polygon class="st6" points="276.58,318.43 277.61,318.43 280,291.15 278.97,291.15 							"/>
							<polygon class="st6" points="274.63,315.65 257.51,315.65 259.41,293.93 276.53,293.93 							"/>
							<polygon class="st7" points="273.38,313.86 259.07,313.86 260.66,295.72 274.97,295.72 							"/>
						</g>
						<path class="st2" d="M263.07,305.56l1.41,1.41c1.24,1.24,3.25,1.24,4.49,0l1.41-1.41c1.24-1.24,1.24-3.25,0-4.49l-1.41-1.41
							c-1.24-1.24-3.25-1.24-4.49,0l-1.41,1.41C261.83,302.31,261.83,304.32,263.07,305.56z"/>
						<path class="st5" d="M262.35,310.78l0.7,0.7c1.24,1.24,3.25,1.24,4.49,0l0.7-0.7c1.24-1.24,1.24-3.25,0-4.49l-0.7-0.7
							c-1.24-1.24-3.25-1.24-4.49,0l-0.7,0.7C261.11,307.53,261.11,309.54,262.35,310.78z"/>
					</g>
				</g>
			</g>
		</g>
		<g>
			<path class="st4" d="M69.38,114.83h30.56c0.73,0,1.32,0.59,1.32,1.32v6.27c0,0.73-0.59,1.32-1.32,1.32H69.38
				c-0.73,0-1.32-0.59-1.32-1.32v-6.27C68.06,115.42,68.65,114.83,69.38,114.83z"/>
			<path class="st4" d="M84.89,103.79h30.56c0.73,0,1.32,0.59,1.32,1.32v6.27c0,0.73-0.59,1.32-1.32,1.32H84.89
				c-0.73,0-1.32-0.59-1.32-1.32v-6.27C83.57,104.38,84.16,103.79,84.89,103.79z"/>
			<path class="st3" d="M50.14,103.79H80.7c0.73,0,1.32,0.59,1.32,1.32v6.27c0,0.73-0.59,1.32-1.32,1.32H50.14
				c-0.73,0-1.32-0.59-1.32-1.32v-6.27C48.82,104.38,49.41,103.79,50.14,103.79z"/>
		</g>
	</g>
</g>
<g id="Background_Simple" class="st0">
	<g class="st1">
		<path class="st8" d="M64.33,285.74c-10.47-22.78-16.94-47.7-16.17-73.01c0.91-30.01,9.78-60.01,26.84-84.02
			s42.51-41.66,70.53-46.63s58.29,3.37,79.22,23.67c20.05,19.44,47.37,32.01,74.44,29.19c20.31-2.12,39.49-11.24,55.72-24.46
			c19.69-16.03,47.13-17.06,66.92-1.17c5.61,4.5,10.58,9.96,14.64,16.24c14.59,22.56,18.07,51.73,13.62,78.65
			c-4.45,26.92-16.2,51.92-29.97,75.05C360.55,385.43,135.4,440.32,64.33,285.74z"/>
		<path class="st9" d="M64.33,285.74c-10.47-22.78-16.94-47.7-16.17-73.01c0.91-30.01,9.78-60.01,26.84-84.02
			s42.51-41.66,70.53-46.63s58.29,3.37,79.22,23.67c20.05,19.44,47.37,32.01,74.44,29.19c20.31-2.12,39.49-11.24,55.72-24.46
			c19.69-16.03,47.13-17.06,66.92-1.17c5.61,4.5,10.58,9.96,14.64,16.24c14.59,22.56,18.07,51.73,13.62,78.65
			c-4.45,26.92-16.2,51.92-29.97,75.05C360.55,385.43,135.4,440.32,64.33,285.74z"/>
	</g>
</g>
<g id="Shadow">
	<ellipse id="_x3C_Path_x3E__1_" class="st4" cx="250" cy="412.39" rx="193.89" ry="11.32"/>
</g>
<g id="Pricing_Plans_3">
	<g>
		<g>
			<path class="st8" d="M392.74,277.53h-58.51c-10.29,0-18.63-8.34-18.63-18.63V100.12c0-10.29,8.34-18.63,18.63-18.63h58.51
				c10.29,0,18.63,8.34,18.63,18.63V258.9C411.37,269.19,403.03,277.53,392.74,277.53z"/>
			<path class="st10" d="M392.95,81.49h-58.92c-10.17,0-18.42,8.25-18.42,18.42v159.2c0,10.17,8.25,18.42,18.42,18.42h58.92
				c10.17,0,18.42-8.25,18.42-18.42V99.91C411.37,89.74,403.12,81.49,392.95,81.49z"/>
			<path class="st8" d="M411.37,91.11v38.88h-95.76V91.11c0-5.31,4.31-9.62,9.62-9.62h76.52C407.06,81.49,411.37,85.8,411.37,91.11z
				"/>
		</g>
		<g>
			<path class="st11" d="M342.7,102.42c0,1.92-1.42,3.1-3.71,3.1h-1.96v2.51h-1.62v-8.71h3.58
				C341.28,99.33,342.7,100.5,342.7,102.42z M341.07,102.42c0-1.09-0.73-1.73-2.15-1.73h-1.89v3.46h1.89
				C340.34,104.15,341.07,103.52,341.07,102.42z"/>
			<path class="st11" d="M347.95,101.32v1.48c-0.14-0.02-0.25-0.04-0.36-0.04c-1.18,0-1.93,0.7-1.93,2.05v3.22h-1.55v-6.64h1.48
				v0.97C346.03,101.66,346.84,101.32,347.95,101.32z"/>
			<path class="st11" d="M355.42,105.21h-5.21c0.19,0.97,1,1.59,2.15,1.59c0.75,0,1.33-0.24,1.8-0.72l0.83,0.96
				c-0.6,0.71-1.53,1.08-2.67,1.08c-2.23,0-3.67-1.43-3.67-3.41c0-1.98,1.46-3.39,3.43-3.39c1.94,0,3.36,1.36,3.36,3.43
				C355.45,104.87,355.43,105.06,355.42,105.21z M350.2,104.18h3.77c-0.12-0.96-0.86-1.62-1.88-1.62
				C351.08,102.56,350.35,103.21,350.2,104.18z"/>
			<path class="st11" d="M368.05,104.23v3.81h-1.55v-3.61c0-1.18-0.55-1.75-1.49-1.75c-1.02,0-1.73,0.67-1.73,1.99v3.37h-1.55v-3.61
				c0-1.18-0.55-1.75-1.49-1.75c-1.03,0-1.73,0.67-1.73,1.99v3.37h-1.55v-6.64h1.48v0.85c0.5-0.6,1.27-0.92,2.18-0.92
				c0.97,0,1.78,0.36,2.24,1.11c0.53-0.68,1.43-1.11,2.49-1.11C366.93,101.32,368.05,102.22,368.05,104.23z"/>
			<path class="st11" d="M369.82,99.36c0-0.52,0.42-0.93,1-0.93c0.57,0,0.99,0.39,0.99,0.9c0,0.55-0.41,0.97-0.99,0.97
				C370.25,100.3,369.82,99.89,369.82,99.36z M370.04,101.39h1.55v6.64h-1.55V101.39z"/>
			<path class="st11" d="M380.06,101.39v6.64h-1.48v-0.85c-0.5,0.61-1.28,0.93-2.14,0.93c-1.7,0-2.86-0.93-2.86-2.93v-3.79h1.55
				v3.58c0,1.21,0.57,1.78,1.55,1.78c1.08,0,1.82-0.67,1.82-2v-3.36H380.06z"/>
			<path class="st11" d="M393.2,104.23v3.81h-1.55v-3.61c0-1.18-0.55-1.75-1.49-1.75c-1.02,0-1.73,0.67-1.73,1.99v3.37h-1.55v-3.61
				c0-1.18-0.55-1.75-1.49-1.75c-1.03,0-1.73,0.67-1.73,1.99v3.37h-1.55v-6.64h1.48v0.85c0.5-0.6,1.27-0.92,2.18-0.92
				c0.97,0,1.78,0.36,2.24,1.11c0.53-0.68,1.43-1.11,2.49-1.11C392.09,101.32,393.2,102.22,393.2,104.23z"/>
		</g>
		<g>
			<path class="st8" d="M383.48,267.12H343.5c-5.44,0-9.84-4.41-9.84-9.84v-0.75c0-5.44,4.41-9.84,9.84-9.84h39.98
				c5.44,0,9.84,4.41,9.84,9.84v0.75C393.32,262.71,388.91,267.12,383.48,267.12z"/>
			<g>
				<g>
					<path class="st11" d="M348.01,258.47c0,1.86-1.49,3.1-3.83,3.3l-0.31,1.54h-1.4l0.31-1.54c-1.33-0.13-2.5-0.54-3.21-1.08
						l0.94-1.73c0.74,0.55,1.68,0.89,2.64,0.99l0.47-2.36c-1.3-0.39-2.72-0.91-2.72-2.6c0-1.86,1.52-3.11,3.9-3.28l0.31-1.54h1.4
						l-0.31,1.55c0.99,0.1,1.9,0.38,2.57,0.8l-0.85,1.73c-0.6-0.4-1.33-0.64-2.08-0.73l-0.49,2.46
						C346.63,256.36,348.01,256.86,348.01,258.47z M344.02,255.59l0.4-2.01c-0.8,0.15-1.24,0.59-1.26,1.12
						C343.17,255.13,343.52,255.38,344.02,255.59z M345.75,258.83c0-0.4-0.32-0.66-0.81-0.84l-0.38,1.91
						C345.32,259.75,345.75,259.36,345.75,258.83z"/>
				</g>
			</g>
		</g>
		<g>
			<line x1="337.74" y1="205.89" x2="387.18" y2="205.89"/>
			<rect x="337.74" y="204.89" class="st8" width="49.43" height="2"/>
		</g>
		<g>
			<line x1="337.74" y1="173.05" x2="387.18" y2="173.05"/>
			<rect x="337.74" y="172.05" class="st8" width="49.43" height="2"/>
		</g>
		<g>
			<line x1="337.74" y1="141.4" x2="387.18" y2="141.4"/>
			<rect x="337.74" y="140.4" class="st8" width="49.43" height="2"/>
		</g>
		<g>
			
				<ellipse transform="matrix(0.7071 -0.7071 0.7071 0.7071 -5.0694 302.0415)" class="st8" cx="362.06" cy="157.14" rx="8.6" ry="8.6"/>
			<g>
				<polygon class="st11" points="368.21,155.28 363.27,160.23 360.96,162.54 358.65,160.23 360.96,157.92 365.9,152.97 				"/>
				<polygon class="st11" points="363.27,160.23 360.96,162.54 356.06,157.64 358.37,155.33 360.96,157.92 				"/>
			</g>
		</g>
		<g>
			<circle class="st8" cx="362.06" cy="188.87" r="8.6"/>
			<g>
				<polygon class="st11" points="368.21,187.01 363.27,191.96 360.96,194.27 358.65,191.96 360.96,189.65 365.9,184.7 				"/>
				<polygon class="st11" points="363.27,191.96 360.96,194.27 356.06,189.37 358.37,187.06 360.96,189.65 				"/>
			</g>
		</g>
		<g>
			<circle class="st8" cx="362.06" cy="222.9" r="8.6"/>
			<g>
				<polygon class="st11" points="368.21,221.04 363.27,225.99 360.96,228.3 358.65,225.99 360.96,223.68 365.9,218.73 				"/>
				<polygon class="st11" points="363.27,225.99 360.96,228.3 356.06,223.4 358.37,221.09 360.96,223.68 				"/>
			</g>
		</g>
		<g>
			<polygon class="st11" points="350.79,116.21 352.4,118.79 355.34,119.52 353.39,121.85 353.6,124.88 350.79,123.74 
				347.97,124.88 348.18,121.85 346.23,119.52 349.18,118.79 			"/>
			<polygon class="st11" points="362.06,116.21 363.67,118.79 366.61,119.52 364.66,121.85 364.88,124.88 362.06,123.74 
				359.25,124.88 359.46,121.85 357.51,119.52 360.45,118.79 			"/>
			<polygon class="st11" points="373.34,116.21 374.94,118.79 377.89,119.52 375.94,121.85 376.15,124.88 373.34,123.74 
				370.52,124.88 370.73,121.85 368.78,119.52 371.73,118.79 			"/>
		</g>
	</g>
</g>
<g id="Pricing_Plans_2">
	<g>
		<g>
			<g>
				<path class="st8" d="M280.23,266.37h-58.51c-10.29,0-18.63-8.34-18.63-18.63V88.96c0-10.29,8.34-18.63,18.63-18.63h58.51
					c10.29,0,18.63,8.34,18.63,18.63v158.79C298.86,258.03,290.52,266.37,280.23,266.37z"/>
				<path class="st12" d="M279.61,70.33h-57.26c-10.63,0-19.25,8.62-19.25,19.25v157.54c0,10.63,8.62,19.25,19.25,19.25h57.26
					c10.63,0,19.25-8.62,19.25-19.25V89.58C298.87,78.95,290.25,70.33,279.61,70.33z"/>
			</g>
			<path class="st8" d="M298.87,79.95v38.88H203.1V79.95c0-5.31,4.31-9.62,9.62-9.62h76.52C294.56,70.33,298.87,74.64,298.87,79.95z
				"/>
			<g>
				<path class="st11" d="M222.85,95.95l0.56-1.26c0.7,0.56,1.8,0.96,2.87,0.96c1.36,0,1.93-0.48,1.93-1.13
					c0-1.88-5.17-0.65-5.17-3.88c0-1.41,1.12-2.6,3.51-2.6c1.04,0,2.14,0.27,2.9,0.77l-0.51,1.26c-0.78-0.46-1.64-0.68-2.4-0.68
					c-1.34,0-1.89,0.52-1.89,1.18c0,1.85,5.16,0.65,5.16,3.84c0,1.39-1.13,2.59-3.52,2.59C224.92,97,223.57,96.57,222.85,95.95z"/>
				<path class="st11" d="M235.25,96.51c-0.37,0.3-0.93,0.45-1.49,0.45c-1.46,0-2.29-0.77-2.29-2.24v-3.2h-1.09v-1.24h1.09v-1.52
					h1.55v1.52h1.78v1.24h-1.78v3.16c0,0.65,0.32,0.99,0.92,0.99c0.32,0,0.63-0.09,0.87-0.27L235.25,96.51z"/>
				<path class="st11" d="M242.09,92.98v3.89h-1.47v-0.81c-0.37,0.57-1.09,0.9-2.09,0.9c-1.52,0-2.47-0.83-2.47-1.99
					c0-1.11,0.75-1.98,2.76-1.98h1.72v-0.1c0-0.91-0.55-1.44-1.65-1.44c-0.75,0-1.52,0.25-2.01,0.66l-0.61-1.13
					c0.71-0.55,1.74-0.82,2.81-0.82C240.98,90.16,242.09,91.07,242.09,92.98z M240.53,94.8v-0.77h-1.6c-1.06,0-1.34,0.4-1.34,0.88
					c0,0.56,0.47,0.92,1.27,0.92C239.61,95.83,240.27,95.48,240.53,94.8z"/>
				<path class="st11" d="M250.62,93.07v3.81h-1.55v-3.61c0-1.18-0.58-1.75-1.58-1.75c-1.11,0-1.85,0.67-1.85,2v3.36h-1.55v-6.64
					h1.48v0.86c0.51-0.61,1.32-0.93,2.29-0.93C249.44,90.16,250.62,91.07,250.62,93.07z"/>
				<path class="st11" d="M259.16,87.65v9.23h-1.49v-0.86c-0.52,0.63-1.29,0.94-2.2,0.94c-1.93,0-3.36-1.34-3.36-3.41
					c0-2.06,1.43-3.39,3.36-3.39c0.86,0,1.62,0.29,2.14,0.9v-3.41H259.16z M257.63,93.55c0-1.27-0.86-2.08-1.98-2.08
					c-1.12,0-1.98,0.81-1.98,2.08c0,1.27,0.86,2.08,1.98,2.08C256.77,95.63,257.63,94.82,257.63,93.55z"/>
				<path class="st11" d="M266.76,92.98v3.89h-1.47v-0.81c-0.37,0.57-1.09,0.9-2.09,0.9c-1.52,0-2.47-0.83-2.47-1.99
					c0-1.11,0.75-1.98,2.76-1.98h1.72v-0.1c0-0.91-0.55-1.44-1.65-1.44c-0.75,0-1.52,0.25-2.01,0.66l-0.61-1.13
					c0.71-0.55,1.74-0.82,2.81-0.82C265.65,90.16,266.76,91.07,266.76,92.98z M265.21,94.8v-0.77h-1.6c-1.06,0-1.34,0.4-1.34,0.88
					c0,0.56,0.47,0.92,1.27,0.92C264.29,95.83,264.94,95.48,265.21,94.8z"/>
				<path class="st11" d="M272.59,90.16v1.48c-0.14-0.02-0.25-0.04-0.36-0.04c-1.18,0-1.93,0.7-1.93,2.05v3.22h-1.55v-6.64h1.48
					v0.97C270.68,90.51,271.49,90.16,272.59,90.16z"/>
				<path class="st11" d="M280.35,87.65v9.23h-1.49v-0.86c-0.52,0.63-1.29,0.94-2.2,0.94c-1.93,0-3.36-1.34-3.36-3.41
					c0-2.06,1.43-3.39,3.36-3.39c0.86,0,1.62,0.29,2.14,0.9v-3.41H280.35z M278.82,93.55c0-1.27-0.86-2.08-1.98-2.08
					c-1.12,0-1.98,0.81-1.98,2.08c0,1.27,0.86,2.08,1.98,2.08C277.97,95.63,278.82,94.82,278.82,93.55z"/>
			</g>
			<g>
				<path class="st8" d="M271.78,255.96H231.8c-5.44,0-9.84-4.41-9.84-9.84v-0.75c0-5.44,4.41-9.84,9.84-9.84h39.98
					c5.44,0,9.84,4.41,9.84,9.84v0.75C281.62,251.55,277.22,255.96,271.78,255.96z"/>
			</g>
			<g>
				<line x1="226.05" y1="194.73" x2="275.48" y2="194.73"/>
				<rect x="226.05" y="193.73" class="st8" width="49.43" height="2"/>
			</g>
			<g>
				<line x1="226.05" y1="161.89" x2="275.48" y2="161.89"/>
				<rect x="226.05" y="160.89" class="st8" width="49.43" height="2"/>
			</g>
			<g>
				<line x1="226.05" y1="130.24" x2="275.48" y2="130.24"/>
				<rect x="226.05" y="129.24" class="st8" width="49.43" height="2"/>
			</g>
			<g>
				
					<ellipse transform="matrix(0.2298 -0.9732 0.9732 0.2298 19.6105 380.2115)" class="st8" cx="250.01" cy="177.72" rx="8.6" ry="8.6"/>
				<g>
					<polygon class="st11" points="256.17,175.86 251.22,180.8 248.92,183.11 246.6,180.8 248.91,178.5 253.86,173.55 					"/>
					<polygon class="st11" points="251.22,180.8 248.92,183.11 244.02,178.21 246.32,175.91 248.91,178.5 					"/>
				</g>
			</g>
			<g>
				
					<ellipse transform="matrix(0.9239 -0.3827 0.3827 0.9239 -61.942 112.0815)" class="st8" cx="250.76" cy="211.74" rx="8.6" ry="8.6"/>
				<g>
					<polygon class="st11" points="256.92,209.88 251.97,214.83 249.66,217.14 247.35,214.83 249.66,212.52 254.61,207.57 					"/>
					<polygon class="st11" points="251.97,214.83 249.66,217.14 244.77,212.24 247.07,209.93 249.66,212.52 					"/>
				</g>
			</g>
			<g>
				<g>
					<circle class="st13" cx="250.01" cy="146.07" r="8.51"/>
					<circle class="st12" cx="250.01" cy="146.07" r="8.51"/>
				</g>
				<g>
					
						<rect x="244.83" y="144.45" transform="matrix(0.7071 -0.7071 0.7071 0.7071 -30.057 219.5709)" class="st11" width="10.37" height="3.23"/>
					
						<rect x="244.83" y="144.45" transform="matrix(-0.7071 -0.7071 0.7071 -0.7071 323.5164 426.139)" class="st11" width="10.37" height="3.23"/>
				</g>
			</g>
		</g>
		<g>
			<g>
				<g>
					<polygon class="st8" points="289.3,81.09 289.3,103.91 294.12,99.1 294.12,81.09 					"/>
					<g>
						<polygon class="st8" points="298.93,81.09 298.93,103.91 294.12,99.1 294.12,81.09 						"/>
					</g>
				</g>
				<g class="st10">
					<polygon points="298.94,81.09 298.94,103.92 294.12,99.09 289.3,103.92 289.3,81.09 					"/>
				</g>
				<g>
					<path class="st8" d="M296.47,58.27L296.47,58.27c0.69,1.3,2.28,1.81,3.61,1.17l0,0c1.97-0.96,4.2,0.67,3.9,2.83l0,0
						c-0.2,1.46,0.78,2.81,2.23,3.07l0,0c2.15,0.38,3.01,3.01,1.49,4.59l0,0c-1.02,1.06-1.02,2.73,0,3.79l0,0
						c1.52,1.57,0.66,4.2-1.49,4.59l0,0c-1.45,0.26-2.43,1.61-2.23,3.07l0,0c0.3,2.17-1.94,3.79-3.9,2.83l0,0
						c-1.32-0.64-2.91-0.12-3.61,1.17l0,0c-1.03,1.93-3.79,1.93-4.82,0l0,0c-0.69-1.3-2.28-1.81-3.61-1.17l0,0
						c-1.97,0.96-4.2-0.67-3.9-2.83l0,0c0.2-1.46-0.78-2.81-2.23-3.07l0,0c-2.15-0.38-3.01-3.01-1.49-4.59l0,0
						c1.02-1.06,1.02-2.73,0-3.79l0,0c-1.52-1.57-0.66-4.2,1.49-4.59l0,0c1.45-0.26,2.43-1.61,2.23-3.07l0,0
						c-0.3-2.17,1.94-3.79,3.9-2.83l0,0c1.32,0.64,2.91,0.12,3.61-1.17l0,0C292.67,56.34,295.44,56.34,296.47,58.27z"/>
					<path class="st8" d="M296.47,58.27L296.47,58.27c0.69,1.3,2.28,1.81,3.61,1.17l0,0c1.97-0.96,4.2,0.67,3.9,2.83l0,0
						c-0.2,1.46,0.78,2.81,2.23,3.07l0,0c2.15,0.38,3.01,3.01,1.49,4.59l0,0c-1.02,1.06-1.02,2.73,0,3.79l0,0
						c1.52,1.57,0.66,4.2-1.49,4.59l0,0c-1.45,0.26-2.43,1.61-2.23,3.07l0,0c0.3,2.17-1.94,3.79-3.9,2.83l0,0
						c-1.32-0.64-2.91-0.12-3.61,1.17l0,0c-1.03,1.93-3.79,1.93-4.82,0l0,0c-0.69-1.3-2.28-1.81-3.61-1.17l0,0
						c-1.97,0.96-4.2-0.67-3.9-2.83l0,0c0.2-1.46-0.78-2.81-2.23-3.07l0,0c-2.15-0.38-3.01-3.01-1.49-4.59l0,0
						c1.02-1.06,1.02-2.73,0-3.79l0,0c-1.52-1.57-0.66-4.2,1.49-4.59l0,0c1.45-0.26,2.43-1.61,2.23-3.07l0,0
						c-0.3-2.17,1.94-3.79,3.9-2.83l0,0c1.32,0.64,2.91,0.12,3.61-1.17l0,0C292.67,56.34,295.44,56.34,296.47,58.27z"/>
					<g class="st14">
						<path class="st11" d="M296.47,58.27L296.47,58.27c0.69,1.3,2.28,1.81,3.61,1.17l0,0c1.97-0.96,4.2,0.67,3.9,2.83l0,0
							c-0.2,1.46,0.78,2.81,2.23,3.07l0,0c2.15,0.38,3.01,3.01,1.49,4.59l0,0c-1.02,1.06-1.02,2.73,0,3.79l0,0
							c1.52,1.57,0.66,4.2-1.49,4.59l0,0c-1.45,0.26-2.43,1.61-2.23,3.07l0,0c0.3,2.17-1.94,3.79-3.9,2.83l0,0
							c-1.32-0.64-2.91-0.12-3.61,1.17l0,0c-1.03,1.93-3.79,1.93-4.82,0l0,0c-0.69-1.3-2.28-1.81-3.61-1.17l0,0
							c-1.97,0.96-4.2-0.67-3.9-2.83l0,0c0.2-1.46-0.78-2.81-2.23-3.07l0,0c-2.15-0.38-3.01-3.01-1.49-4.59l0,0
							c1.02-1.06,1.02-2.73,0-3.79l0,0c-1.52-1.57-0.66-4.2,1.49-4.59l0,0c1.45-0.26,2.43-1.61,2.23-3.07l0,0
							c-0.3-2.17,1.94-3.79,3.9-2.83l0,0c1.32,0.64,2.91,0.12,3.61-1.17l0,0C292.67,56.34,295.44,56.34,296.47,58.27z"/>
					</g>
				</g>
			</g>
			<g>
				<g>
					<path class="st11" d="M289.73,68.97h-1.24c-0.58,0-1.08,0.47-1.11,1.06l-0.3,5.71c-0.03,0.58,0.42,1.06,1,1.06h1.24
						c0.58,0,1.08-0.47,1.11-1.06l0.3-5.71C290.76,69.44,290.31,68.97,289.73,68.97z"/>
					<path class="st11" d="M299.62,68.97h-2.91l0.81-1.9c0.09-0.21,0.12-0.43,0.1-0.65l-0.17-1.5c-0.07-0.6-0.58-1.05-1.18-1.05
						h-1.45l0,0c-0.08,1.51-0.63,2.96-1.57,4.15l-0.89,1.12c-0.23,0.29-0.37,0.65-0.39,1.02l-0.28,5.34
						c-0.04,0.72,0.52,1.31,1.24,1.31H298c0.44,0,0.88-0.2,1.18-0.54l0.47-0.53c0.19-0.21,0.32-0.46,0.38-0.73l0.97-4.31
						c0.09-0.4,0-0.82-0.24-1.15l0,0C300.5,69.18,300.07,68.97,299.62,68.97z"/>
				</g>
			</g>
		</g>
		<g>
			<polygon class="st11" points="250.01,103.91 251.62,106.49 254.57,107.22 252.62,109.55 252.83,112.57 250.01,111.44 
				247.2,112.57 247.41,109.55 245.46,107.22 248.41,106.49 			"/>
		</g>
	</g>
	<g>
		<g>
			<path class="st11" d="M236.62,247.34c0,1.86-1.49,3.1-3.83,3.3l-0.31,1.54h-1.4l0.31-1.54c-1.33-0.13-2.5-0.54-3.21-1.08
				l0.94-1.73c0.74,0.55,1.68,0.89,2.64,0.99l0.48-2.36c-1.3-0.39-2.72-0.91-2.72-2.6c0-1.86,1.52-3.11,3.9-3.28l0.31-1.54h1.4
				l-0.31,1.55c0.99,0.1,1.9,0.38,2.57,0.8l-0.85,1.73c-0.6-0.4-1.33-0.64-2.08-0.73l-0.49,2.46
				C235.24,245.23,236.62,245.73,236.62,247.34z M232.63,244.46l0.4-2.01c-0.8,0.15-1.24,0.59-1.26,1.12
				C231.78,244,232.13,244.25,232.63,244.46z M234.36,247.7c0-0.4-0.32-0.66-0.81-0.84l-0.38,1.91
				C233.93,248.63,234.36,248.23,234.36,247.7z"/>
		</g>
	</g>
</g>
<g id="Pricing_Plans_1_1_">
	<g>
		<g>
			<g>
				<g>
					<path class="st13" d="M165.76,277.53h-58.51c-10.29,0-18.63-8.34-18.63-18.63V100.12c0-10.29,8.34-18.63,18.63-18.63h58.51
						c10.29,0,18.63,8.34,18.63,18.63V258.9C184.39,269.19,176.05,277.53,165.76,277.53z"/>
				</g>
				<path class="st15" d="M165.48,81.49h-57.93c-10.45,0-18.92,8.47-18.92,18.92v158.21c0,10.45,8.47,18.92,18.92,18.92h57.93
					c10.45,0,18.92-8.47,18.92-18.92V100.41C184.39,89.96,175.92,81.49,165.48,81.49z"/>
				<path class="st8" d="M184.39,91.11v38.88H88.63V91.11c0-5.31,4.31-9.62,9.62-9.62h76.52C180.09,81.49,184.39,85.8,184.39,91.11z
					"/>
				<path class="st8" d="M184.39,91.11v38.88H88.63V91.11c0-5.31,4.31-9.62,9.62-9.62h76.52C180.09,81.49,184.39,85.8,184.39,91.11z
					"/>
				<g>
					<path class="st11" d="M128.64,105.67c0,1.49-1.17,2.36-3.41,2.36h-4.33v-8.71h4.08c2.09,0,3.21,0.88,3.21,2.26
						c0,0.9-0.45,1.55-1.12,1.92C128.01,103.8,128.64,104.54,128.64,105.67z M122.53,100.59v2.4h2.29c1.12,0,1.75-0.4,1.75-1.19
						c0-0.81-0.63-1.21-1.75-1.21H122.53z M127.01,105.51c0-0.87-0.66-1.26-1.88-1.26h-2.61v2.51h2.61
						C126.36,106.76,127.01,106.38,127.01,105.51z"/>
					<path class="st11" d="M135.78,104.14v3.89h-1.47v-0.81c-0.37,0.57-1.09,0.9-2.09,0.9c-1.52,0-2.47-0.83-2.47-1.99
						c0-1.11,0.75-1.98,2.76-1.98h1.72v-0.1c0-0.91-0.55-1.44-1.65-1.44c-0.75,0-1.52,0.25-2.01,0.66l-0.61-1.13
						c0.71-0.55,1.74-0.82,2.81-0.82C134.68,101.32,135.78,102.22,135.78,104.14z M134.23,105.95v-0.77h-1.6
						c-1.06,0-1.34,0.4-1.34,0.88c0,0.56,0.47,0.92,1.27,0.92C133.31,106.99,133.97,106.64,134.23,105.95z"/>
					<path class="st11" d="M137.01,107.37l0.6-1.18c0.58,0.39,1.48,0.66,2.31,0.66c0.98,0,1.39-0.27,1.39-0.73
						c0-1.27-4.1-0.07-4.1-2.72c0-1.26,1.13-2.08,2.92-2.08c0.88,0,1.89,0.21,2.49,0.57l-0.6,1.18c-0.63-0.37-1.27-0.5-1.9-0.5
						c-0.95,0-1.39,0.31-1.39,0.75c0,1.34,4.1,0.15,4.1,2.75c0,1.24-1.14,2.05-3.01,2.05C138.72,108.12,137.61,107.79,137.01,107.37
						z"/>
					<path class="st11" d="M143.97,99.36c0-0.52,0.42-0.93,1-0.93c0.57,0,0.99,0.39,0.99,0.9c0,0.55-0.41,0.97-0.99,0.97
						C144.39,100.3,143.97,99.89,143.97,99.36z M144.18,101.39h1.55v6.64h-1.55V101.39z"/>
					<path class="st11" d="M147.22,104.71c0-1.99,1.49-3.39,3.59-3.39c1.29,0,2.33,0.53,2.84,1.54l-1.19,0.7
						c-0.4-0.63-0.99-0.92-1.65-0.92c-1.14,0-2.01,0.8-2.01,2.08c0,1.29,0.87,2.08,2.01,2.08c0.66,0,1.26-0.29,1.65-0.92l1.19,0.7
						c-0.51,0.99-1.54,1.55-2.84,1.55C148.72,108.12,147.22,106.7,147.22,104.71z"/>
				</g>
				<g>
					<g>
						
							<ellipse transform="matrix(0.7071 -0.7071 0.7071 0.7071 -95.2568 151.3649)" class="st13" cx="135.09" cy="190.67" rx="8.51" ry="8.51"/>
						
							<ellipse transform="matrix(0.7071 -0.7071 0.7071 0.7071 -95.2568 151.3649)" class="st12" cx="135.09" cy="190.67" rx="8.51" ry="8.51"/>
					</g>
					<g>
						
							<rect x="129.9" y="189.05" transform="matrix(0.7071 -0.7071 0.7071 0.7071 -95.2566 151.3633)" class="st11" width="10.37" height="3.23"/>
						
							<rect x="129.9" y="189.05" transform="matrix(-0.7071 -0.7071 0.7071 -0.7071 95.784 421.0099)" class="st11" width="10.37" height="3.23"/>
					</g>
				</g>
				<g>
					<circle class="st8" cx="135.48" cy="222.11" r="8.6"/>
					<g>
						<polygon class="st11" points="141.64,220.25 136.69,225.2 134.39,227.51 132.07,225.2 134.38,222.89 139.33,217.94 						"/>
						<polygon class="st11" points="136.69,225.2 134.39,227.51 129.49,222.61 131.79,220.3 134.38,222.89 						"/>
					</g>
				</g>
				<g>
					<path class="st8" d="M156.5,267.12h-39.98c-5.44,0-9.84-4.41-9.84-9.84v-0.75c0-5.44,4.41-9.84,9.84-9.84h39.98
						c5.44,0,9.84,4.41,9.84,9.84v0.75C166.34,262.71,161.94,267.12,156.5,267.12z"/>
					<g>
						<g>
							<path class="st11" d="M119.61,258.84c0,1.86-1.49,3.1-3.83,3.3l-0.31,1.54h-1.4l0.31-1.54c-1.33-0.13-2.5-0.54-3.21-1.08
								l0.94-1.73c0.74,0.55,1.68,0.89,2.64,0.99l0.47-2.36c-1.3-0.39-2.72-0.91-2.72-2.6c0-1.86,1.52-3.11,3.9-3.28l0.31-1.54h1.4
								l-0.31,1.55c0.99,0.1,1.9,0.38,2.57,0.8l-0.85,1.73c-0.6-0.4-1.33-0.64-2.08-0.73l-0.49,2.46
								C118.23,256.73,119.61,257.23,119.61,258.84z M115.62,255.96l0.4-2.01c-0.8,0.15-1.24,0.59-1.26,1.12
								C114.76,255.5,115.11,255.75,115.62,255.96z M117.35,259.2c0-0.4-0.32-0.66-0.81-0.84l-0.38,1.91
								C116.91,260.12,117.35,259.73,117.35,259.2z"/>
						</g>
					</g>
				</g>
				<g>
					<line x1="110.77" y1="205.89" x2="160.2" y2="205.89"/>
					<rect x="110.77" y="204.89" class="st8" width="49.43" height="2"/>
				</g>
				<g>
					<line x1="110.77" y1="173.05" x2="160.2" y2="173.05"/>
					<rect x="110.77" y="172.05" class="st8" width="49.43" height="2"/>
				</g>
				<g>
					<line x1="110.77" y1="141.4" x2="160.2" y2="141.4"/>
					<rect x="110.77" y="140.4" class="st8" width="49.43" height="2"/>
				</g>
				<g>
					<g>
						
							<ellipse transform="matrix(0.7071 -0.7071 0.7071 0.7071 -71.6096 141.5699)" class="st13" cx="135.09" cy="157.23" rx="8.51" ry="8.51"/>
						
							<ellipse transform="matrix(0.7071 -0.7071 0.7071 0.7071 -71.6096 141.5699)" class="st12" cx="135.09" cy="157.23" rx="8.51" ry="8.51"/>
					</g>
					<g>
						
							<rect x="129.9" y="155.61" transform="matrix(0.7071 -0.7071 0.7071 0.7071 -71.6095 141.5685)" class="st11" width="10.37" height="3.23"/>
						
							<rect x="129.9" y="155.61" transform="matrix(-0.7071 -0.7071 0.7071 -0.7071 119.431 363.9204)" class="st11" width="10.37" height="3.23"/>
					</g>
				</g>
			</g>
		</g>
	</g>
</g>
<g id="Character_2">
	<g>
		<g>
			<polygon class="st16" points="260.09,409.12 267.76,410.52 273.56,396.37 265.18,393.02 			"/>
			<polygon class="st17" points="262.84,400.14 265.03,393.56 268.89,394.5 273.56,396.37 271.06,402.53 			"/>
			<g>
				<path class="st8" d="M258.59,406.46c-0.03-0.03-0.3-0.27-0.7-0.58c-0.29-0.22-0.63-0.48-1-0.73c-0.8-0.54-1.74-1.03-2.45-1.03
					c-0.29,0-0.56,0.1-0.76,0.28c-0.26,0.19-0.36,0.52-0.25,0.81c0.23,0.5,1.27,0.94,2.32,1.19c0.24,0.05,0.47,0.1,0.71,0.15
					c0.65,0.12,1.3,0.21,1.96,0.25l0.01,0c0.08,0,0.15-0.04,0.19-0.12C258.67,406.61,258.65,406.52,258.59,406.46z M256.99,406.26
					c-1.44-0.25-2.96-0.69-3.17-1.2c-0.03-0.07-0.06-0.2,0.16-0.4c0.12-0.11,0.28-0.17,0.46-0.17c0.14,0,0.27,0.02,0.41,0.05
					c0.94,0.36,1.79,0.86,2.57,1.5c0.14,0.1,0.29,0.22,0.43,0.34C257.57,406.36,257.28,406.31,256.99,406.26z"/>
				<path class="st8" d="M258.2,403.31c-0.24-0.31-0.61-0.52-1.02-0.58c-0.57-0.09-0.81,0.14-0.9,0.34
					c-0.23,0.45,0.12,1.29,0.62,2.08c0.2,0.3,0.42,0.6,0.64,0.86c0.28,0.32,0.55,0.59,0.77,0.76c0.02,0.02,0.06,0.03,0.09,0.03
					c0.01,0,0.02,0.01,0.03,0.01l0.01,0c0.03,0.01,0.07,0.02,0.1,0.01c0.07-0.02,0.12-0.08,0.13-0.14c0.01-0.04,0.06-0.4,0.08-0.88
					C258.79,405.03,258.72,403.97,258.2,403.31z M258.29,406.18c-0.1-0.1-0.21-0.2-0.31-0.32c-0.8-0.87-1.53-2.21-1.35-2.67
					c0.02-0.04,0.09-0.17,0.46-0.11l0.11,0.04c0.25,0.06,0.47,0.2,0.63,0.39c0.39,0.72,0.56,1.51,0.5,2.3
					C258.32,405.93,258.31,406.05,258.29,406.18z"/>
				<path class="st13" d="M259.6,405.9l9.27,2.22c0.35,0.08,0.59,0.38,0.58,0.71l-0.27,7.37c-0.02,0.65-0.61,1.17-1.32,1.15
					c-0.09,0-0.18-0.01-0.27-0.03c-3.33-0.85-6.25-1.73-10.41-2.72c-4.91-1.17-3.82-0.33-9.61-1.64c-3.49-0.79-3.1-4.6-1.58-4.42
					c6.97,0.83,8.2-0.89,11.42-2.5C258.1,405.75,258.87,405.7,259.6,405.9z"/>
			</g>
			<polygon class="st16" points="315.29,410.51 322.63,410.51 324.8,398.34 315.82,396.67 			"/>
			<polygon class="st17" points="315.82,396.67 324.8,398.34 323.34,406.54 315.52,406.22 			"/>
			<g>
				<polygon class="st8" points="326.38,404.3 313.2,403.55 312.8,398.35 327.55,399.36 				"/>
				<polygon class="st12" points="326.38,404.3 313.2,403.55 312.8,398.35 327.55,399.36 				"/>
			</g>
			<g>
				<path class="st8" d="M314.22,410.7c-0.04-0.02-0.34-0.19-0.78-0.41c-0.3-0.14-0.67-0.31-1.06-0.46
					c-0.87-0.35-1.86-0.61-2.52-0.43c-0.26,0.06-0.47,0.23-0.6,0.45c-0.18,0.26-0.18,0.59-0.01,0.85c0.34,0.43,1.39,0.61,2.41,0.6
					c0.23,0,0.45-0.01,0.68-0.02c0.6-0.04,1.21-0.11,1.8-0.23h0.01c0.01,0,0.01,0,0.02,0c0.07-0.02,0.13-0.08,0.15-0.16
					C314.32,410.82,314.28,410.74,314.22,410.7z M312.71,410.89c-1.36,0.1-2.84,0.02-3.15-0.42c-0.06-0.06-0.11-0.17,0.03-0.42
					c0.08-0.14,0.22-0.25,0.38-0.28c0.12-0.03,0.25-0.05,0.37-0.05c0.94,0.13,1.85,0.42,2.7,0.85c0.16,0.06,0.33,0.14,0.48,0.24
					C313.27,410.83,312.99,410.86,312.71,410.89z"/>
				<path class="st8" d="M314.34,410.88c0-0.04-0.04-0.4-0.14-0.88c-0.17-0.75-0.51-1.76-1.15-2.28c-0.3-0.25-0.69-0.37-1.08-0.32
					c-0.54,0.05-0.71,0.32-0.73,0.54c-0.09,0.5,0.45,1.25,1.13,1.89c0.25,0.25,0.51,0.47,0.77,0.66c0.33,0.26,0.65,0.45,0.9,0.56
					c0.02,0.01,0.05,0.02,0.08,0.01h0.01c0.01,0,0.01,0,0.02,0c0,0,0,0,0,0c0.03,0,0.07,0.01,0.1-0.01
					C314.31,411.01,314.35,410.95,314.34,410.88z M311.61,407.97c0.01-0.05,0.04-0.18,0.39-0.23l0.1,0.01
					c0.25,0,0.49,0.08,0.68,0.25c0.53,0.6,0.88,1.34,1.03,2.12c0.03,0.13,0.05,0.26,0.06,0.38c-0.11-0.07-0.24-0.15-0.36-0.24
					C312.57,409.59,311.57,408.46,311.61,407.97z"/>
				<path class="st13" d="M314.98,409.91l8.93-0.05c0.34,0,0.63,0.23,0.71,0.56l1.66,7.26c0.15,0.64-0.25,1.29-0.89,1.44
					c-0.08,0.02-0.17,0.03-0.25,0.03c-3.22-0.04-6.09-0.2-10.1-0.17c-4.73,0.03-3.53,0.59-9.09,0.7c-3.35,0.06-3.99-3.74-2.57-3.94
					c6.5-0.86,7.16-2.82,9.66-5.17C313.59,410.12,314.28,409.89,314.98,409.91z"/>
			</g>
			<path class="st13" d="M298.74,230.86L264.12,392.9l12.76,3.4c9.54-20.89,17.54-42.25,23.5-58.97c2.83-7.93,3.97-15.39,6.13-22.38
				c2.57-8.31,6.04-15.95,7.81-22.93c9.25-36.54,8.5-54.84,8.5-54.84l1.97-4.82L298.74,230.86z"/>
			<path class="st10" d="M319.97,265.63c-1.26,7.37-3.06,16.16-5.65,26.39c-0.84,3.32-6.48,19.31-7.81,22.93
				c-1.56-23.4,3.78-62.97,3.78-62.97L319.97,265.63z"/>
			<path class="st13" d="M309.37,231.69l2.61,89.02l2.29,77.97l12.03,0.83c3.35-19.09,5.81-36.41,7.57-52
				c1.15-10.19-0.81-17.64-0.18-26.37c0.1-1.45,0.22-2.94,0.35-4.46c2.1-25,2.29-50.13,0.43-75.15c-0.35-4.77-0.59-7.95-0.59-7.95
				l-24.51-3.13V231.69z"/>
			<g>
				<polygon class="st8" points="275.19,400.81 262.57,396.92 263.43,391.78 277.51,396.29 				"/>
				<polygon class="st12" points="275.19,400.81 262.57,396.92 263.43,391.78 277.51,396.29 				"/>
			</g>
		</g>
		<g>
			<path class="st8" d="M307.65,175.24c-0.34,0.48-3.19,4.43-5.19,11.39c-0.49,1.68-0.93,3.53-1.26,5.56l-0.88,2.39l-7.72-3.07
				l-1.22-0.48c1.88-8.48,9.16-16.14,14.56-16.02C306.67,175.04,307.23,175.09,307.65,175.24z"/>
			<path class="st18" d="M307.65,175.24c-0.34,0.48-3.19,4.43-5.19,11.39c-0.49,1.68-0.93,3.53-1.26,5.56l-0.88,2.39l-7.72-3.07
				l-1.22-0.48c1.88-8.48,9.16-16.14,14.56-16.02C306.67,175.04,307.23,175.09,307.65,175.24z"/>
		</g>
		<g>
			<g>
				<g>
					<g>
						<g>
							<g>
								<g>
									<path class="st8" d="M298.04,230.1c0.93-2.07,0.82-6.13,3.89-6.9c4.08-1.01,7.43-1.31,23.5,0.06
										c7.57,0.64,9.26,6.7,9.04,9.81c-0.03,0.42-0.17,0.81-0.41,1.16l-0.32,0.46c-0.76,0.29-35.12-3.52-35.46-3.31
										C298.27,231.37,297.73,230.78,298.04,230.1z"/>
									<path class="st18" d="M298.04,230.1c0.93-2.07,0.82-6.13,3.89-6.9c4.08-1.01,7.43-1.31,23.5,0.06
										c7.57,0.64,9.26,6.7,9.04,9.81c-0.03,0.42-0.17,0.81-0.41,1.16l-0.32,0.46c-0.76,0.29-35.12-3.52-35.46-3.31
										C298.27,231.37,297.73,230.78,298.04,230.1z"/>
								</g>
								<g>
									<g>
										<g>
											<g>
												<g>
													<g>
														<g id="_x3C_Group_x3E__2_">
															<path class="st8" d="M306.36,175.18c-0.22,0.41-7.05,1.12-6.51,31.05c0.07,3.85-0.91,12.02-0.91,12.02
																c0,0.01,0,0.02,0,0.02l-0.99,2.49c-0.81,2.05-0.69,4.35,0.34,6.29l0.49,0.93c0.01,0.01,0.02,0.02,0.03,0.02
																l34.63,3.52c0.01,0,0.02,0,0.03-0.01l1,0.01c0,0,2.23-18.08,5.21-30.17c0.97-3.94,2.03-8.78,2.03-8.78
																c-1.19-8.61-1.05-13.83-1.02-13.78c0.01,0.02-0.01-0.05-0.03-0.06c-4.2-1.24-8.48-2.18-12.81-2.8
																c-4.6-0.71-9.25-1.09-13.9-1.13C309.58,174.93,306.37,175.17,306.36,175.18z"/>
															<path class="st16" d="M327.77,160.2c-1.25,4.41-2.8,12.53,0.1,15.78l-2.19,2.29c-3.85,4.02-10.64,2.04-11.72-3.43
																l0,0c5.06-0.79,3.99-5.88,4.92-10.8L327.77,160.2z"/>
															<path class="st19" d="M316.23,158.97c1.05,3.52,2.48,9.18,1.42,13.09c4.55,0.4,7.57-3.73,7.76-5.04
																c0,0-1.12-3.2-1.31-4.77L316.23,158.97z"/>
															<path class="st16" d="M329.11,153.31c-0.54,7.5-0.61,10.68-4.44,14.49c-5.76,5.73-14.85,3.42-16.56-4.08
																c-1.54-6.76-0.39-17.87,6.98-20.78c5.26-2.09,11.23,0.47,13.32,5.74C329,150.14,329.24,151.73,329.11,153.31z"/>
															<path class="st13" d="M333.44,149.83c-0.8,2.84-1.18,5.43-1.51,8.66c-0.92-0.01-1.94-0.01-2.86-0.03
																c-0.52,0.52-0.74,1.34-0.47,2.03c-0.46-0.23-0.92-0.5-1.18-0.94c-0.24-0.41-0.27-0.92-0.31-1.39
																c-0.12-1.81-0.21-3.72-0.58-5.49c-1.47-0.6-3.17-0.44-4.55-1.24c-3.07-1.77-5.78-4.13-7.86-7
																c-2.27,0.97-4.03,3.17-4.75,5.53c-0.65,0.18-1.36-0.18-1.75-0.73c-0.4-0.55-0.53-1.24-0.59-1.91
																c-0.15-1.76,0.2-3.61,1.27-5.02c0.75-0.98,1.87-1.7,3.09-1.9c0.53-0.09,1.07,0.04,1.55-0.18
																c0.52-0.25,0.98-0.87,1.5-1.18c2.27-1.37,5.17-1.55,7.69-0.86c3.2,0.87,5.93,2.94,8.35,5.21
																C331.79,144.63,333.93,148.1,333.44,149.83z"/>
															<path class="st16" d="M331.72,160.52c-0.73,1.26-1.94,2.17-3.34,2.55c-1.86,0.47-2.75-1.2-2.2-2.94
																c0.49-1.57,2.08-3.67,3.92-3.42c1.34,0.24,2.24,1.52,2,2.87C332.05,159.91,331.92,160.23,331.72,160.52z"/>
															<path class="st13" d="M317.5,155.19c-0.01,0.65-0.37,1.17-0.79,1.18c-0.42,0.01-0.77-0.54-0.77-1.19
																c0.01-0.65,0.37-1.17,0.79-1.18C317.15,153.99,317.5,154.54,317.5,155.19z"/>
															<path class="st13" d="M310.08,155.11c-0.02,0.66-0.37,1.17-0.8,1.18c-0.43,0.01-0.77-0.54-0.76-1.2
																c0.01-0.67,0.36-1.17,0.79-1.18C309.74,153.9,310.11,154.44,310.08,155.11z"/>
															<path class="st20" d="M313,156.47c-0.6,1.49-1.41,2.89-2.39,4.16c0.67,0.49,1.52,0.66,2.33,0.46L313,156.47z"/>
															<path class="st13" d="M315.27,163.31c-0.37,0.16-0.76,0.28-1.15,0.35c-0.09,0.02-0.18-0.03-0.2-0.12c0,0,0,0,0,0
																c-0.01-0.09,0.04-0.17,0.13-0.19c1.64-0.3,3.04-1.37,3.76-2.88c0.02-0.08,0.1-0.14,0.19-0.12
																c0.08,0.01,0.14,0.08,0.13,0.16c0,0.01,0,0.02-0.01,0.03C317.57,161.8,316.54,162.8,315.27,163.31z"/>
															<path class="st13" d="M320.1,151.49c-0.08,0.03-0.18,0-0.26-0.07c-0.67-0.64-1.53-0.92-2.33-0.77
																c-0.14,0.03-0.29-0.06-0.34-0.21c-0.05-0.15,0.01-0.31,0.15-0.34c0,0,0,0,0.01,0c0.96-0.2,2.01,0.14,2.82,0.91
																c0.12,0.11,0.15,0.29,0.07,0.4C320.19,151.44,320.15,151.47,320.1,151.49z"/>
															<path class="st13" d="M308.12,151.83c-0.11,0.04-0.23,0.02-0.31-0.06c-0.13-0.11-0.15-0.31-0.04-0.45c0,0,0,0,0,0
																c0.77-0.95,1.95-1.46,3.17-1.38c0.17,0.01,0.3,0.16,0.28,0.33c0,0.01,0,0.02,0,0.03c-0.02,0.17-0.18,0.3-0.36,0.27
																c0,0,0,0,0,0c-1-0.05-1.97,0.38-2.6,1.16C308.22,151.78,308.17,151.81,308.12,151.83z"/>
														</g>
													</g>
												</g>
											</g>
											<g>
												<path class="st8" d="M326.65,173.59l2.77,2.6c0,0-10.01,7-10.17,6.55c-0.16-0.45-2.24-2.79-2.24-2.79L326.65,173.59z"/>
												<path class="st8" d="M316.54,173.35l-3.53,1.4c0,0,0.6,7.56,0.91,7.2c0.31-0.36,3.1-1.77,3.1-1.77L316.54,173.35z"/>
												<g>
													<path class="st18" d="M326.65,173.59l2.77,2.6c0,0-10.01,7-10.17,6.55c-0.16-0.45-2.24-2.79-2.24-2.79L326.65,173.59z"
														/>
													<path class="st18" d="M316.54,173.35l-3.53,1.4c0,0,0.6,7.56,0.91,7.2c0.31-0.36,3.1-1.77,3.1-1.77L316.54,173.35z"/>
												</g>
											</g>
										</g>
									</g>
								</g>
							</g>
						</g>
					</g>
					<g>
						<g>
							<g>
								<path class="st16" d="M314.66,204.56c0.64,0.95,5.85,0,5.85,0l4.47,0.3c0.49,0.01,0.91-0.36,0.98-0.85l1.25-5.64
									c0.03-0.28-0.15-0.52-0.42-0.57l-3.53-0.64c-1.42-0.26-2.89,0.05-4.08,0.87l-3.74,2.54L314.66,204.56z"/>
							</g>
							<path class="st16" d="M315.64,200.29l-0.23,4.35c0,0-20.09,7.55-25.86,4.24c-3.78-2.16,0-11.32,3.06-17.39l7.72,2.89
								l-2.55,6.65L315.64,200.29z"/>
						</g>
					</g>
					<g class="st21">
						<g>
							<path d="M314.66,204.56c0.64,0.95,5.85,0,5.85,0l4.47,0.3c0.49,0.01,0.91-0.36,0.98-0.85l1.25-5.64
								c0.03-0.28-0.15-0.52-0.42-0.57l-3.53-0.64c-1.42-0.26-2.89,0.05-4.08,0.87l-3.74,2.54L314.66,204.56z"/>
						</g>
						<path d="M315.64,200.29l-0.23,4.35c0,0-20.09,7.55-25.86,4.24c-3.78-2.16,0-11.32,3.06-17.39l7.72,2.89l-2.55,6.65
							L315.64,200.29z"/>
					</g>
					<g>
						<path class="st16" d="M339.43,181.93l-14.82,20.4l-21.7-4l-0.98,4.28c0,0,21.03,11.44,26.77,8.09
							c5.74-3.35,15.4-23.64,15.4-23.64L339.43,181.93z"/>
						<g>
							<path class="st16" d="M301.92,202.6c-0.65,0.94-5.85-0.07-5.85-0.07l-4.47,0.25c-0.49,0-0.91-0.37-0.97-0.86l-1.17-5.66
								c-0.03-0.28,0.16-0.52,0.43-0.56l3.54-0.59c1.42-0.24,2.89,0.09,4.07,0.92l5.42,2.45L301.92,202.6z"/>
						</g>
						<path class="st8" d="M342.24,180.02c3.49,4.12,2.46,14.32-2.56,20.81l-12.25-7.2c0,0,7.19-12.14,11.16-14.53
							C340.28,178.07,340.96,178.51,342.24,180.02z"/>
						<path class="st18" d="M342.24,180.02c3.49,4.12,2.46,14.32-2.56,20.81l-12.25-7.2c0,0,7.19-12.14,11.16-14.53
							C340.28,178.07,340.96,178.51,342.24,180.02z"/>
					</g>
				</g>
			</g>
		</g>
	</g>
</g>
<g id="Character_1_1_">
	<g>
		<g>
			<g>
				<g>
					<polygon class="st16" points="231.95,411.83 239.72,412.9 247.66,397.4 239.06,395.97 					"/>
					<polygon class="st19" points="239.06,395.97 247.66,397.4 243.33,405.83 235.19,404.61 					"/>
				</g>
				<g>
					<path class="st13" d="M241.98,409.95l-9.61-0.52c-0.33-0.02-0.62,0.19-0.7,0.51l-1.94,6.96c-0.17,0.61,0.19,1.25,0.8,1.42
						c0.01,0,0.01,0,0.02,0l0.26,0.01c3.11,0.12,5.35,0.05,9.29,0.26c2.4,0.13,9.65,0.78,12.97,0.97c3.32,0.18,3.93-3.08,2.59-3.46
						c-6.03-1.66-10.5-3.79-12.37-5.61C242.93,410.16,242.47,409.96,241.98,409.95z"/>
					<path class="st8" d="M242.47,411.03c-0.07-0.02-0.13-0.09-0.13-0.17c-0.01-0.07,0.03-0.15,0.1-0.18
						c0.29-0.17,2.94-1.6,3.79-1.1c0.19,0.11,0.31,0.32,0.29,0.54c0.06,0.41-0.11,0.81-0.45,1.05c-0.46,0.27-1,0.38-1.54,0.31
						C243.82,411.41,243.13,411.26,242.47,411.03z M245.78,409.91c-0.97,0.12-1.9,0.42-2.76,0.89c0.9,0.37,1.91,0.37,2.82,0.01
						c0.2-0.16,0.31-0.4,0.29-0.66c0-0.15-0.11-0.23-0.11-0.23C245.95,409.9,245.87,409.9,245.78,409.91L245.78,409.91z"/>
					<path class="st8" d="M242.45,411.13c-0.05-0.04-0.08-0.11-0.08-0.18c0.01-0.12,0.28-2.38,1.24-3.07
						c0.23-0.18,0.53-0.26,0.81-0.2c0.29,0.02,0.53,0.24,0.57,0.52c0.11,0.84-1.56,2.5-2.4,2.9l-0.1-0.01
						C242.49,411.11,242.47,411.12,242.45,411.13z M244.27,407.97c-0.15,0-0.31,0.05-0.43,0.15c-0.59,0.68-0.97,1.53-1.07,2.43
						c0.84-0.56,1.93-1.83,1.85-2.35c-0.01-0.05-0.02-0.19-0.26-0.21l-0.1-0.01L244.27,407.97z"/>
				</g>
				<path class="st13" d="M190.5,366.81l5.7,0.21c9.47-0.44,18.88-1.84,28.07-4.18c8.23-1.99,21.87-8.3,21.87-8.3
					c-4.39,18.78-12.29,47.4-12.29,47.4l12.22,1.41c0,0,31.82-60.62,17.77-67.56c-12.55-6.7-61.1-2.3-61.1-2.3l-5.01-5.25
					l-33.91,2.73C163.81,330.98,157.32,366.76,190.5,366.81z"/>
				<g>
					<polygon class="st8" points="246.84,405.83 232.86,401.59 234.54,395.77 249.69,401.53 					"/>
					<polygon class="st12" points="246.84,405.83 232.86,401.59 234.54,395.77 249.69,401.53 					"/>
				</g>
				<path class="st22" d="M194.71,353.55c3.4,9.97,29.32,9,32.93,8.52c-21.33,4.11-25.36,4.66-31.45,4.95l-5.7-0.21
					c-1.9,0-3.66-0.15-5.3-0.39C187.83,349.23,190.59,341.48,194.71,353.55z"/>
			</g>
			<polygon class="st16" points="124.86,394.56 123.86,402.42 141.99,405.38 142.99,397.51 			"/>
			<g>
				<path class="st13" d="M125.47,403.51l5.64-7.85c0.19-0.26,0.17-0.62-0.04-0.86l-4.81-5.39c-0.44-0.47-1.17-0.51-1.65-0.08
					c-0.05,0.07-0.1,0.14-0.13,0.22c-1.78,2.55-2.93,4.48-5.23,7.68c-1.4,1.95-5.86,7.72-7.79,10.41c-1.93,2.69,0.47,4.97,1.51,4.04
					c4.64-4.19,8.82-6.83,11.38-7.4C124.81,404.18,125.21,403.9,125.47,403.51z"/>
				<path class="st8" d="M124.26,403.31c0.06-0.05,0.14-0.05,0.21-0.02c0.07,0.03,0.11,0.1,0.09,0.18
					c-0.01,0.34-0.23,3.34-1.11,3.78c-0.2,0.11-0.44,0.09-0.62-0.04c-0.34-0.18-0.57-0.52-0.58-0.91c0.01-0.54,0.21-1.06,0.56-1.47
					C123.24,404.27,123.72,403.76,124.26,403.31z M124.16,403.91c-0.8,0.56-1.35,1.41-1.54,2.37c0.02,0.26,0.17,0.49,0.4,0.61
					c0.13,0.08,0.22,0.07,0.25,0.02c0.08-0.03,0.14-0.09,0.18-0.17C123.87,405.85,124.1,404.89,124.16,403.91z"/>
				<path class="st8" d="M124.27,403.25c0.06-0.02,0.13-0.01,0.19,0.02c0.09,0.08,1.82,1.56,1.89,2.74
					c0.03,0.29-0.07,0.58-0.26,0.79c-0.17,0.24-0.48,0.32-0.75,0.2c-0.78-0.36-1.27-2.66-1.15-3.57l0.05-0.08
					C124.22,403.31,124.24,403.28,124.27,403.25z M126.03,406.09c-0.26-0.87-0.77-1.64-1.47-2.21c0.02,1.03,0.53,2.57,0.98,2.83
					c0.05,0.02,0.2,0.09,0.31-0.11l0.05-0.08C125.99,406.39,126.04,406.24,126.03,406.09z"/>
			</g>
			<polygon class="st19" points="142.98,397.51 141.98,405.38 132.63,403.85 133.64,395.98 			"/>
			<path class="st13" d="M195.43,346.11c2.76,4.37,12.31,57.09-5.51,68.87c-13.12,8.65-54.43-7.72-54.43-7.72l1.32-13.09
				c0,0,33.55,6.28,37.7,2.9c4.14-3.38-9.7-39.97-10.38-48.57C163.45,339.89,195.43,346.11,195.43,346.11z"/>
			<g>
				<polygon class="st8" points="134.58,408.21 135.03,393.6 141.09,393.71 139.47,409.84 				"/>
				<polygon class="st12" points="134.58,408.21 135.03,393.6 141.09,393.71 139.47,409.84 				"/>
			</g>
		</g>
		<g>
			<g>
				<g>
					<g>
						<path class="st8" d="M199.17,329.63c-1.07-2.01-4.33-5.93-7.47-6.48c-4.17-0.73-5.06-0.89-21.15,1.58
							c-7.59,1.16-8.14,7.12-7.72,10.21c0.06,0.41,0.22,0.8,0.48,1.13l0.35,0.44c0.78,0.24,35-5.77,35.35-5.59
							C199.02,330.92,199.53,330.29,199.17,329.63z"/>
						<path class="st18" d="M199.17,329.63c-1.07-2.01-4.33-5.93-7.47-6.48c-4.17-0.73-5.06-0.89-21.15,1.58
							c-7.59,1.16-8.14,7.12-7.72,10.21c0.06,0.41,0.22,0.8,0.48,1.13l0.35,0.44c0.78,0.24,35-5.77,35.35-5.59
							C199.02,330.92,199.53,330.29,199.17,329.63z"/>
					</g>
					<g>
						<g>
							<g>
								<g>
									<g>
										<g>
											<g id="_x3C_Group_x3E__1_">
												<g>
													<g>
														<path class="st16" d="M236.31,272c2.21-0.16,4.38-0.86,6.27-2.01c1.31-0.8,2.5-2.28,3.29-3.44
															c0.28-0.41,0.39-0.9,0.32-1.39c-0.15-1.14-0.59-2.21-1.3-3.1c-0.39-0.49-1.11-0.56-1.62-0.2
															c-1.15,0.83-2.48,1.7-3.52,2.51c-2.93,0.55-5.71,3.25-5.95,6.22C234.6,271.01,235.51,271.58,236.31,272z"/>
														<path class="st16" d="M237.59,268.07l0.8,3.88c0,0-19.25,13.63-22.92,13.83c-2.52,0.13-5.44,0.27-8.46,0.36
															c-3.47,0.12-7.07,0.19-10.35,0.17c-5.93-0.05-10.78-0.44-11.77-1.48c-3-3.17,0.21-8.17,4.9-8.13
															c6.11,0.06,16.78,1.51,26.93,1.13C220.19,277.7,237.59,268.07,237.59,268.07z"/>
													</g>
													<path class="st23" d="M207.01,286.14c-3.47,0.12-7.07,0.19-10.35,0.17l-3.63-5.22
														C198.35,282.31,203.63,284.54,207.01,286.14z"/>
												</g>
												<g>
													<path class="st8" d="M195.02,275.59c0,0-8.48-1.6-9.92,2.49c-1.44,4.1,2.34,11.4,14.13,10.12l1.2-12.48L195.02,275.59z
														"/>
													<path class="st18" d="M195.02,275.59c0,0-8.48-1.6-9.92,2.49c-1.44,4.1,2.34,11.4,14.13,10.12l1.2-12.48L195.02,275.59
														z"/>
												</g>
												<path class="st8" d="M188.51,275.69c0.23,0.4,6.69,8.89,7.59,15.51c0.65,4.77,0,9.97-0.09,15.32
													c-0.06,3.85,1.29,11.98,1.29,11.98c0,0.01,0,0.02,0,0.02l1.07,2.45c0.88,2.02,0.83,4.32-0.14,6.3l-0.46,0.95
													c-0.01,0.01-0.02,0.02-0.03,0.02l-34.5,4.62c-0.01,0-0.02,0-0.03,0l-0.2-0.11c0,0-3.08-2.57-2.06-5.83l0.02-2.53
													c1.37-4.51,0.95-10.32-2.42-22.31c-1.1-3.91-2.31-8.71-2.31-8.71c0.91-8.65-1.9-13.02-1.93-12.96
													c-0.01,0.02,0-0.05,0.03-0.06c4.16-1.37,8.4-2.44,12.71-3.2c4.58-0.85,9.21-1.38,13.86-1.57
													C185.29,275.55,188.5,275.68,188.51,275.69z"/>
												<path class="st13" d="M185.1,245.28c2.17,2.51,2.64,6.04,3.56,9.23c0.75,2.6,2.38,7.88,1.36,10.38
													c-1.15,2.85-6.81,0.43-8.69,2.86c-7.48,9.67-11.96,5.5-14.87,3.12c-1.44-1.18-6.91-2.35-8.32-3.56
													c-1.43-1.22-3.82-1.82-2.78-6.52c4.16-18.83,11.07-19.93,20.29-19.43C179.19,241.55,182.72,242.52,185.1,245.28z"/>
												<path class="st16" d="M166.63,261.4c1.39,4.37,3.19,12.44,0.41,15.78l2.26,2.22c3.98,3.9,10.7,1.7,11.61-3.8l0,0
													c-5.09-0.63-4.18-5.75-5.26-10.64L166.63,261.4z"/>
												<path class="st19" d="M178.13,259.8c-0.94,3.55-2.18,9.26-1,13.13c-4.54,0.55-7.69-3.49-7.91-4.79
													c0,0,1.02-3.24,1.16-4.81L178.13,259.8z"/>
												<path class="st16" d="M165.08,254.55c0.78,7.48,0.95,10.66,4.9,14.34c5.94,5.54,14.95,2.94,16.42-4.61
													c1.33-6.8-0.17-17.88-7.64-20.55c-5.33-1.93-11.21,0.83-13.13,6.16C165.08,251.38,164.9,252.98,165.08,254.55z"/>
												<path class="st13" d="M166.88,258.48c0.58,1,0.9,2.14,0.91,3.3c0.73-0.38,0.8-1.42,0.57-2.21
													C168.11,258.78,167.7,258.39,166.88,258.48z"/>
												<path class="st16" d="M162.69,261.84c0.77,1.23,2,2.11,3.42,2.44c1.88,0.41,2.71-1.29,2.1-3.01
													c-0.54-1.55-2.19-3.6-4.03-3.29c-1.34,0.28-2.19,1.59-1.91,2.93C162.35,261.25,162.49,261.56,162.69,261.84z"/>
												<path class="st13" d="M175.78,256.3c0.03,0.65,0.4,1.16,0.82,1.15c0.42-0.01,0.76-0.56,0.73-1.22
													c-0.03-0.65-0.4-1.16-0.82-1.15C176.08,255.1,175.75,255.65,175.78,256.3z"/>
												<path class="st13" d="M183.19,255.99c0.04,0.66,0.4,1.16,0.83,1.16c0.43,0,0.76-0.56,0.72-1.23
													c-0.03-0.66-0.39-1.16-0.82-1.15C183.49,254.77,183.13,255.32,183.19,255.99z"/>
												<path class="st13" d="M183.73,254.81l1.54-0.48C185.27,254.32,184.54,255.52,183.73,254.81z"/>
												<path class="st20" d="M181.28,257.2c0.65,1.47,1.5,2.84,2.52,4.09c-0.66,0.51-1.5,0.71-2.32,0.53L181.28,257.2z"/>
												<path class="st13" d="M179.23,264.11c0.38,0.14,0.76,0.25,1.16,0.32c0.09,0.02,0.18-0.04,0.19-0.13c0,0,0,0,0,0
													c0.01-0.09-0.05-0.17-0.14-0.18c-1.65-0.25-3.08-1.27-3.85-2.75c-0.02-0.08-0.11-0.13-0.19-0.12
													c-0.08,0.01-0.13,0.09-0.12,0.16c0,0.01,0,0.02,0.01,0.02C176.88,262.67,177.94,263.64,179.23,264.11z"/>
												<path class="st13" d="M173.99,251.45c0.09,0.02,0.18,0,0.26-0.08c0.64-0.66,1.5-0.97,2.3-0.84
													c0.14,0.03,0.29-0.07,0.34-0.22c0.05-0.15-0.02-0.31-0.16-0.34c0,0,0,0-0.01,0c-0.96-0.17-2,0.2-2.79,1
													c-0.11,0.11-0.14,0.29-0.05,0.41C173.9,251.4,173.94,251.43,173.99,251.45z"/>
												<path class="st13" d="M185.98,251.41c0.11,0.04,0.23,0.01,0.31-0.07c0.13-0.12,0.14-0.32,0.03-0.45c0,0,0,0,0,0
													c-0.8-0.92-1.99-1.4-3.21-1.28c-0.17,0.02-0.29,0.17-0.27,0.34c0,0.01,0,0.02,0,0.03c0.03,0.17,0.19,0.29,0.37,0.26
													c0,0,0,0,0,0c1-0.09,1.98,0.31,2.63,1.08C185.87,251.36,185.92,251.39,185.98,251.41z"/>
												<path class="st13" d="M176.32,255.13l1.54-0.48C177.86,254.64,177.12,255.87,176.32,255.13z"/>
												<path class="st13" d="M172.23,247.24c2.2,2.7-5.78,9.76-5.35,11.24c-2.17,0.14-3.78-4.41-3.89-6.77s0.64-4.75,2.1-6.61
													c0.93-1.19,2.66-1.42,4.16-1.61c0.44-0.06,0.91-0.09,1.32,0.1c0.52,0.24,0.82,0.8,0.9,1.37
													C171.54,245.52,171.87,246.8,172.23,247.24z"/>
												<path class="st13" d="M169.25,243.49c3.52,2.85,3.85,6.65,3.05,9.84c0.96-0.88,1.8-1.71,2.36-2.88
													c0.56-1.17,0.61-2.69-0.22-3.68c2.12,1.45,3.54,4.01,3.93,6.55c0.93-0.61,1.44-1.75,1.55-2.85
													c0.11-1.11-0.3-2.26-1.1-3.04c1.48,1.32,2.37,3.56,1.96,5.5c1.02-0.92,1.64-2,1.55-3.37c-0.1-1.37-0.85-2.68-1.98-3.45
													c2.07,1.2,3.58,3.46,3.53,5.85c2.28-2.22,1.51-5.38-1.29-7.13C179.79,243.09,173.88,241.91,169.25,243.49z"/>
											</g>
										</g>
									</g>
								</g>
								<g>
									<path class="st8" d="M168.15,274.75l-2.68,2.69c0,0,10.22,6.68,10.37,6.23c0.15-0.45,2.15-2.86,2.15-2.86L168.15,274.75z"
										/>
									<path class="st8" d="M178.25,274.18l3.57,1.29c0,0-0.36,7.57-0.68,7.22c-0.33-0.35-3.16-1.67-3.16-1.67L178.25,274.18z"/>
									<g>
										<path class="st18" d="M168.15,274.75l-2.68,2.69c0,0,10.22,6.68,10.37,6.23c0.15-0.45,2.15-2.86,2.15-2.86L168.15,274.75z
											"/>
										<path class="st18" d="M178.25,274.18l3.57,1.29c0,0-0.36,7.57-0.68,7.22c-0.33-0.35-3.16-1.67-3.16-1.67L178.25,274.18z"
											/>
									</g>
								</g>
							</g>
						</g>
						<g>
							<g>
								<path class="st16" d="M113.2,306.29l-8.61,0.82l3.01,6.76c0,0,4.66-2.07,6.67-3.71L113.2,306.29z"/>
								<path class="st16" d="M101.41,312.28l0.14,0.25c0.54,0.93,1.54,1.49,2.61,1.45l3.43-0.11l-3.01-6.76l-2.1,1.2
									C101.09,309.11,100.61,310.89,101.41,312.28z"/>
							</g>
							<path class="st16" d="M115.13,309.91c0,0,15.05,1.39,29.13-5.27c0,0,9.47-7.89,14.59-14.52c7.6-9.85,0.53-12.83-5.08-6.47
								c-4.16,4.72-13.8,13.84-13.8,13.84c-12.11,7.03-27.84,9.18-27.84,9.18C109.09,311.07,115.13,309.91,115.13,309.91z"/>
						</g>
						<g>
							<path class="st8" d="M163.22,279.9c3.58,2.87-1.76,10.37-8.72,19.39l-8.63-11.2C145.87,288.09,156.82,274.77,163.22,279.9z"
								/>
							<path class="st18" d="M163.22,279.9c3.58,2.87-1.76,10.37-8.72,19.39l-8.63-11.2C145.87,288.09,156.82,274.77,163.22,279.9z"
								/>
						</g>
					</g>
				</g>
			</g>
		</g>
	</g>
</g>
</svg>
