<?xml version="1.0" encoding="utf-8"?>
<!-- Generator: Adobe Illustrator 27.6.1, SVG Export Plug-In . SVG Version: 6.00 Build 0)  -->
<svg version="1.1" xmlns="http://www.w3.org/2000/svg" xmlns:xlink="http://www.w3.org/1999/xlink" x="0px" y="0px"
	 viewBox="0 0 3710 3710" style="enable-background:new 0 0 3710 3710;" xml:space="preserve">
<style type="text/css">
	.st0{fill:url(#SVGID_1_);}
	.st1{fill:#7D97F4;}
	.st2{fill:url(#SVGID_00000143615401629285916400000017677590069927031948_);}
	.st3{opacity:0.6;}
	.st4{fill:#FFFFFF;}
	.st5{fill:url(#SVGID_00000018921029328218188910000001978256818889717669_);}
	.st6{fill:url(#SVGID_00000109011661069210292060000006759752831049352867_);}
	.st7{opacity:0.7;fill:#FFFFFF;}
	.st8{opacity:0.78;fill:#FFFFFF;}
	.st9{fill:url(#SVGID_00000096780333085668606000000014444032085909384067_);}
	.st10{fill:url(#SVGID_00000100351597675308074370000014581774564080068759_);}
	.st11{fill:url(#SVGID_00000016759504516846559570000010509099839670066828_);}
	.st12{fill:url(#SVGID_00000055698705567863907640000008243597332303116962_);}
	.st13{fill:url(#SVGID_00000145054553605697444480000015784876433295111047_);}
	.st14{fill:url(#SVGID_00000114769788053935815400000014967067403584999555_);}
	.st15{fill:url(#SVGID_00000108296608279393943930000006895243718945277575_);}
	.st16{fill:url(#SVGID_00000070115575117139283040000016923364165164246946_);}
	.st17{fill:url(#SVGID_00000081607689875209614090000015932787326565576073_);}
	.st18{fill:url(#SVGID_00000142855060135404706240000016284008638318914237_);}
	.st19{fill:url(#SVGID_00000111891051682841394630000007523040797237266342_);}
	.st20{fill:url(#SVGID_00000026843406347245267230000006177000507089404337_);}
	.st21{fill:url(#SVGID_00000165952597427770334750000000688524131479720860_);}
	.st22{fill:url(#SVGID_00000049183969915383127840000008896450545695088569_);}
	.st23{fill:url(#SVGID_00000072980142287620048010000011883707576248006557_);}
	.st24{fill:url(#SVGID_00000024719460066078758770000002660947874819433108_);}
	.st25{fill:url(#SVGID_00000121961735250213727910000010326407003002219430_);}
	.st26{fill:url(#SVGID_00000047767820174903606970000009945071909130796180_);}
	.st27{fill:url(#SVGID_00000155133293010300843930000014913076776470374589_);}
	.st28{fill:url(#SVGID_00000096019771463148390910000006082222510792092090_);}
	.st29{fill:url(#SVGID_00000147916456737925840660000012848854576700947590_);}
	.st30{fill:url(#SVGID_00000026156641631153965460000016295028197813670557_);}
	.st31{fill:url(#SVGID_00000106134744342979200720000008073339150391246474_);}
	.st32{fill:url(#SVGID_00000170986893675586671380000002539024511317834154_);}
	.st33{fill:url(#SVGID_00000174588056685638480710000005292811041346345091_);}
	.st34{fill:url(#SVGID_00000140697586470958932850000000022485534217185416_);}
	.st35{fill:url(#SVGID_00000175318048267766485660000005682364182320441251_);}
	.st36{fill:url(#SVGID_00000177447359147579592180000017868247444973728135_);}
	.st37{fill:url(#SVGID_00000014632357368583755880000015299335144519220629_);}
	.st38{fill:url(#SVGID_00000156586865338855724130000000014944709133351557_);}
	.st39{fill:#91B3FA;}
	.st40{opacity:0.67;fill:#FFFFFF;}
	.st41{fill:url(#SVGID_00000101789070880380572010000011389149956874160778_);}
	.st42{fill:url(#SVGID_00000052098278892914759970000011093813395201358255_);}
	.st43{fill:url(#SVGID_00000148663287589898686220000018435125980785906107_);}
	.st44{fill:url(#SVGID_00000008842859130132811180000010578750302657357952_);}
	.st45{fill:url(#SVGID_00000011732203839468331290000003740617839774876051_);}
	.st46{fill:url(#SVGID_00000139277901032154216350000003930924819126617495_);}
	.st47{fill:url(#SVGID_00000076581926946479273590000008374699220571311515_);}
	.st48{fill:url(#SVGID_00000138556744448574501620000007673176664959267208_);}
	.st49{fill:url(#SVGID_00000012437961162117908970000016547517154254260617_);}
	.st50{fill:url(#SVGID_00000018922048965087166340000010816602856365705349_);}
	.st51{fill:url(#SVGID_00000165924936956782536230000011539915003646950571_);}
	.st52{fill:url(#SVGID_00000060016117729007717470000014021949834763413147_);}
	.st53{fill:url(#SVGID_00000025402394991807126580000009455804522570133946_);}
	.st54{fill:url(#SVGID_00000174574245900107791740000014374323726991734687_);}
	.st55{fill:url(#SVGID_00000069378175328790099270000010183782338256911511_);}
	.st56{fill:url(#SVGID_00000120522835779788536020000002442853349773688731_);}
	.st57{fill:url(#SVGID_00000051384605316314547200000004009854323048636816_);}
	.st58{fill:url(#SVGID_00000080186189342608390240000016011992496208212669_);}
	.st59{fill:url(#SVGID_00000155849433997418483720000008661694169941919141_);}
	.st60{fill:url(#SVGID_00000139986802102544932820000000879698495309626518_);}
	.st61{fill:url(#SVGID_00000166642815136562697250000012879723137506443396_);}
	.st62{fill:url(#SVGID_00000132084933538281854440000003069948309736965257_);}
	.st63{fill:url(#SVGID_00000139985004318134221440000006439524074782256256_);}
	.st64{fill:url(#SVGID_00000172426965633150700200000015276186157345919148_);}
	.st65{fill:url(#SVGID_00000139280835394898265230000017060467808536985228_);}
	.st66{fill:url(#SVGID_00000113351878112606975890000011585312057401238414_);}
	.st67{fill:url(#SVGID_00000106855987329171998590000002473734148515273869_);}
	.st68{fill:url(#SVGID_00000018939479907492486100000004636988087548577426_);}
	.st69{fill:url(#SVGID_00000077309189554739431010000001603305033347930781_);}
	.st70{fill:url(#SVGID_00000097482698177616779110000004922935118370807482_);}
	.st71{fill:url(#SVGID_00000103960274671383519510000014756058125935403693_);}
	.st72{fill:url(#SVGID_00000091719314749375023980000014957957614717348793_);}
</style>
<g id="Background">
</g>
<g id="Illustration">
	<g>
		<linearGradient id="SVGID_1_" gradientUnits="userSpaceOnUse" x1="3502.2178" y1="3673.9238" x2="1538.293" y2="1583.2947">
			<stop  offset="0" style="stop-color:#DAE3FE"/>
			<stop  offset="1" style="stop-color:#E9EFFD"/>
		</linearGradient>
		<path class="st0" d="M2912.55,2835.17c-72.5,74.73-137.37,118.66-187.04,151.82c-484.39,323.43-1038.11,230.21-1209.3,198.35
			c-276.2-51.41-509.35-87.67-709.67-268.65c-455.19-411.24-433.05-1269.13-85.23-1800.55c41.24-63.01,388.53-577.81,943.45-650.34
			c13.57-1.77,23.7-2.78,32.57-3.72c85.84-9.09,617.8-57.06,1051.56,306.34c62.09,52.02,162.01,145.85,254.67,288.95
			C3342.36,1580.63,3343.43,2391.04,2912.55,2835.17z"/>
		<g>
			<path class="st1" d="M1491.65,605.15l-1004.6-4.83c-12.11-0.11-21.94,13.28-21.85,29.76l2.23,397.47
				c0.09,16.57,10.18,29.79,22.35,29.3l998.88-21.39c11.62-0.48,20.9-13.32,21.05-29.14l3.5-371.25
				C1513.36,618.69,1503.68,605.26,1491.65,605.15z"/>
			
				<linearGradient id="SVGID_00000096744133324610827370000018233381752944165787_" gradientUnits="userSpaceOnUse" x1="483.5975" y1="828.5925" x2="1494.801" y2="828.5925">
				<stop  offset="0" style="stop-color:#DAE3FE"/>
				<stop  offset="1" style="stop-color:#E9EFFD"/>
			</linearGradient>
			<path style="fill:url(#SVGID_00000096744133324610827370000018233381752944165787_);" d="M489.14,1031.35
				c-1.86,0-3.3-1.76-3.32-4l-2.22-397.46c-0.01-1.04,0.27-1.96,0.83-2.72c0.81-1.1,1.79-1.34,2.48-1.34l1004.61,4.83
				c0.68,0.01,1.66,0.25,2.46,1.35c0.55,0.77,0.83,1.68,0.82,2.72l-3.5,371.24c-0.02,2.2-1.39,3.91-3.19,3.98h-0.02L489.14,1031.35z
				 M486.9,628.41c-0.06,0-0.19,0-0.39,0.28c-0.23,0.31-0.34,0.7-0.34,1.19l2.22,397.46c0.01,0.88,0.47,1.44,0.71,1.44l998.92-21.4
				c0.26-0.02,0.68-0.59,0.69-1.43l3.5-371.24c0-0.48-0.11-0.87-0.33-1.19c-0.2-0.28-0.33-0.28-0.39-0.28L486.9,628.41z"/>
			<g class="st3">
				<rect x="527.78" y="810.54" class="st4" width="48.89" height="186.83"/>
				<rect x="609.47" y="874.75" class="st4" width="48.89" height="122.62"/>
				<rect x="691.16" y="716.06" class="st4" width="48.89" height="281.3"/>
				<rect x="772.84" y="929.79" class="st4" width="48.89" height="67.58"/>
				<rect x="854.53" y="753.67" class="st4" width="48.89" height="243.7"/>
				<rect x="936.22" y="795.87" class="st4" width="48.89" height="201.5"/>
				<rect x="1017.91" y="841.73" class="st4" width="48.89" height="155.64"/>
				<rect x="1099.6" y="659.19" class="st4" width="48.89" height="338.17"/>
				<rect x="1181.29" y="694.97" class="st4" width="48.89" height="302.4"/>
				<rect x="1262.98" y="749.08" class="st4" width="48.89" height="248.28"/>
				<rect x="1344.67" y="936.06" class="st4" width="48.89" height="61.31"/>
				<rect x="1426.36" y="816.96" class="st4" width="48.89" height="180.4"/>
			</g>
		</g>
		<g>
			<g>
				<g>
					
						<linearGradient id="SVGID_00000158718895197902492070000010811349137964868276_" gradientUnits="userSpaceOnUse" x1="2103.1011" y1="-293.0697" x2="1972.1548" y2="235.7505">
						<stop  offset="0" style="stop-color:#FF928E"/>
						<stop  offset="1" style="stop-color:#FE7062"/>
					</linearGradient>
					<circle style="fill:url(#SVGID_00000158718895197902492070000010811349137964868276_);" cx="1850.56" cy="726.8" r="171.94"/>
					
						<linearGradient id="SVGID_00000130615610555004791810000006356275829051313084_" gradientUnits="userSpaceOnUse" x1="2103.1011" y1="-293.0689" x2="1972.1553" y2="235.7494">
						<stop  offset="0" style="stop-color:#FF928E"/>
						<stop  offset="1" style="stop-color:#FE7062"/>
					</linearGradient>
					<circle style="fill:url(#SVGID_00000130615610555004791810000006356275829051313084_);" cx="1850.56" cy="726.81" r="166.23"/>
					<path class="st7" d="M1713.49,664.74c-1.06,0-2.13-0.24-3.14-0.75c-3.44-1.73-4.82-5.94-3.08-9.38
						c27.47-54.42,82.38-88.23,143.3-88.23c9.73,0,19.46,0.88,28.94,2.6c3.79,0.69,6.31,4.33,5.62,8.12
						c-0.69,3.79-4.34,6.3-8.12,5.62c-8.65-1.58-17.54-2.38-26.43-2.38c-55.62,0-105.75,30.87-130.84,80.56
						C1718.5,663.33,1716.04,664.74,1713.49,664.74z"/>
					
						<ellipse transform="matrix(0.7071 -0.7071 0.7071 0.7071 26.5875 1525.0416)" class="st8" cx="1854.18" cy="730.43" rx="140.69" ry="140.69"/>
					<g>
						
							<linearGradient id="SVGID_00000031195854415015695770000002447267158273402011_" gradientUnits="userSpaceOnUse" x1="2109.4294" y1="-291.5017" x2="1978.4833" y2="237.3186">
							<stop  offset="0" style="stop-color:#FF928E"/>
							<stop  offset="1" style="stop-color:#FE7062"/>
						</linearGradient>
						<path style="fill:url(#SVGID_00000031195854415015695770000002447267158273402011_);" d="M1840.38,835.02v-15.31
							c-15.96-0.64-31.74-4.41-42.95-9.31c-4-1.75-6.04-6.24-4.89-10.46l3.89-14.26c1.43-5.23,7.11-7.94,12.11-5.84
							c11.12,4.66,24.85,8.35,39.65,8.35c15.37,0,26.83-5.21,26.83-15.89c0-9.64-8.86-15.37-30.22-21.1
							c-30.48-8.34-52.36-21.62-52.36-48.45c0-24.23,17.71-42.72,48.45-47.67v-15.31c0-4.93,3.99-8.92,8.92-8.92h8.99
							c4.93,0,8.92,3.99,8.92,8.92v13.74c14.76,0.59,25.51,3.12,34.04,6.11c4.37,1.54,6.76,6.24,5.55,10.71l-3.58,13.19
							c-1.38,5.08-6.81,7.87-11.74,6.01c-7.85-2.97-18.96-6.06-33.39-6.06c-18.23,0-23.44,7.55-23.44,14.33
							c0,8.34,10.94,14.07,34.65,21.36c33.86,10.16,47.93,24.23,47.93,49.49c0,23.18-17.19,44.02-50.53,49.23v17.13
							c0,4.93-3.99,8.92-8.92,8.92h-8.99C1844.37,843.94,1840.38,839.94,1840.38,835.02z"/>
					</g>
				</g>
				<g>
					
						<linearGradient id="SVGID_00000007390642135321533740000004564332068874287291_" gradientUnits="userSpaceOnUse" x1="1679.0992" y1="-398.0609" x2="1548.1531" y2="130.7595">
						<stop  offset="0" style="stop-color:#FF928E"/>
						<stop  offset="1" style="stop-color:#FE7062"/>
					</linearGradient>
					<circle style="fill:url(#SVGID_00000007390642135321533740000004564332068874287291_);" cx="1429.74" cy="608.97" r="148.92"/>
					
						<linearGradient id="SVGID_00000002360156742019384780000003627426599640851098_" gradientUnits="userSpaceOnUse" x1="1679.0988" y1="-398.0587" x2="1548.1525" y2="130.762">
						<stop  offset="0" style="stop-color:#FF928E"/>
						<stop  offset="1" style="stop-color:#FE7062"/>
					</linearGradient>
					<circle style="fill:url(#SVGID_00000002360156742019384780000003627426599640851098_);" cx="1429.74" cy="608.97" r="143.97"/>
					<path class="st7" d="M1311.02,553.77c-0.7,0-1.41-0.16-2.07-0.49c-2.27-1.14-3.18-3.92-2.04-6.19
						c23.55-46.65,70.61-75.63,122.83-75.63c8.33,0,16.68,0.75,24.8,2.23c2.5,0.46,4.16,2.85,3.71,5.36
						c-0.45,2.5-2.86,4.16-5.36,3.71c-7.58-1.38-15.37-2.08-23.15-2.08c-48.72,0-92.63,27.04-114.6,70.56
						C1314.32,552.85,1312.7,553.77,1311.02,553.77z"/>
					<circle class="st8" cx="1432.88" cy="612.11" r="121.85"/>
					<g>
						
							<linearGradient id="SVGID_00000060716505941337905870000001866559097545583498_" gradientUnits="userSpaceOnUse" x1="1684.5804" y1="-396.7022" x2="1553.6461" y2="132.0704">
							<stop  offset="0" style="stop-color:#FF928E"/>
							<stop  offset="1" style="stop-color:#FE7062"/>
						</linearGradient>
						<path style="fill:url(#SVGID_00000060716505941337905870000001866559097545583498_);" d="M1420.92,702.7v-13.26
							c-13.82-0.55-27.49-3.81-37.2-8.07c-3.47-1.52-5.23-5.41-4.24-9.06l3.37-12.35c1.24-4.53,6.16-6.87,10.49-5.06
							c9.63,4.04,21.52,7.23,34.35,7.23c13.31,0,23.24-4.51,23.24-13.76c0-8.35-7.67-13.31-26.17-18.27
							c-26.4-7.22-45.35-18.73-45.35-41.96c0-20.98,15.34-37,41.96-41.29v-13.26c0-4.27,3.46-7.72,7.72-7.72h7.79
							c4.27,0,7.72,3.46,7.72,7.72v11.9c12.79,0.51,22.1,2.7,29.48,5.29c3.78,1.33,5.85,5.41,4.8,9.28l-3.1,11.42
							c-1.19,4.4-5.9,6.82-10.17,5.2c-6.8-2.57-16.42-5.25-28.92-5.25c-15.79,0-20.3,6.54-20.3,12.41c0,7.22,9.48,12.18,30.01,18.5
							c29.33,8.8,41.51,20.98,41.51,42.87c0,20.08-14.89,38.13-43.77,42.64v14.84c0,4.27-3.46,7.72-7.72,7.72h-7.79
							C1424.38,710.42,1420.92,706.96,1420.92,702.7z"/>
					</g>
				</g>
				<g>
					
						<linearGradient id="SVGID_00000133503230608932905290000003590371372788158637_" gradientUnits="userSpaceOnUse" x1="2218.0405" y1="-264.6084" x2="2087.0945" y2="264.2105">
						<stop  offset="0" style="stop-color:#FF928E"/>
						<stop  offset="1" style="stop-color:#FE7062"/>
					</linearGradient>
					
						<circle style="fill:url(#SVGID_00000133503230608932905290000003590371372788158637_);" cx="1862.44" cy="1171.48" r="155.95"/>
					
						<linearGradient id="SVGID_00000077317073646255838220000003206156631561415084_" gradientUnits="userSpaceOnUse" x1="2218.0405" y1="-264.6089" x2="2087.0942" y2="264.2113">
						<stop  offset="0" style="stop-color:#FF928E"/>
						<stop  offset="1" style="stop-color:#FE7062"/>
					</linearGradient>
					
						<circle style="fill:url(#SVGID_00000077317073646255838220000003206156631561415084_);" cx="1862.44" cy="1171.48" r="150.76"/>
					<path class="st7" d="M1738.12,1115.19c-0.96,0-1.93-0.22-2.85-0.68c-3.12-1.57-4.38-5.38-2.8-8.51
						c24.91-49.36,74.71-80.02,129.97-80.02c8.82,0,17.65,0.79,26.24,2.36c3.44,0.63,5.72,3.92,5.1,7.37
						c-0.62,3.44-3.93,5.72-7.37,5.1c-7.84-1.43-15.91-2.15-23.97-2.15c-50.44,0-95.91,28-118.66,73.06
						C1742.66,1113.92,1740.43,1115.19,1738.12,1115.19z"/>
					
						<ellipse transform="matrix(0.1826 -0.9832 0.9832 0.1826 370.0938 2794.6743)" class="st8" cx="1865.72" cy="1174.77" rx="127.6" ry="127.6"/>
					<g>
						
							<linearGradient id="SVGID_00000159470063560232743790000009936460781531388042_" gradientUnits="userSpaceOnUse" x1="2223.7798" y1="-263.1854" x2="2092.8337" y2="265.6345">
							<stop  offset="0" style="stop-color:#FF928E"/>
							<stop  offset="1" style="stop-color:#FE7062"/>
						</linearGradient>
						<path style="fill:url(#SVGID_00000159470063560232743790000009936460781531388042_);" d="M1853.2,1269.63v-13.88
							c-14.47-0.58-28.79-4-38.95-8.45c-3.63-1.59-5.48-5.66-4.44-9.49l3.53-12.93c1.29-4.74,6.45-7.2,10.99-5.3
							c10.09,4.23,22.54,7.57,35.96,7.57c13.94,0,24.33-4.73,24.33-14.41c0-8.74-8.03-13.94-27.4-19.13
							c-27.64-7.56-47.49-19.61-47.49-43.94c0-21.97,16.07-38.75,43.94-43.23v-13.88c0-4.47,3.62-8.09,8.09-8.09h8.16
							c4.47,0,8.09,3.62,8.09,8.09v12.47c13.39,0.54,23.14,2.83,30.87,5.54c3.96,1.39,6.13,5.66,5.03,9.72l-3.24,11.96
							c-1.25,4.61-6.18,7.14-10.65,5.45c-7.12-2.69-17.19-5.5-30.28-5.5c-16.54,0-21.26,6.85-21.26,12.99
							c0,7.56,9.92,12.76,31.42,19.37c30.71,9.21,43.47,21.97,43.47,44.89c0,21.03-15.59,39.93-45.83,44.65v15.54
							c0,4.47-3.62,8.09-8.09,8.09h-8.16C1856.82,1277.72,1853.2,1274.1,1853.2,1269.63z"/>
					</g>
				</g>
				<g>
					
						<linearGradient id="SVGID_00000142141880889921919150000005543449919893302712_" gradientUnits="userSpaceOnUse" x1="1840.7018" y1="-358.0418" x2="1709.7557" y2="170.7782">
						<stop  offset="0" style="stop-color:#FF928E"/>
						<stop  offset="1" style="stop-color:#FE7062"/>
					</linearGradient>
					<circle style="fill:url(#SVGID_00000142141880889921919150000005543449919893302712_);" cx="1506.53" cy="991.52" r="196.11"/>
					
						<linearGradient id="SVGID_00000129165717448115505620000006904256492125640633_" gradientUnits="userSpaceOnUse" x1="1840.7024" y1="-358.0433" x2="1709.7567" y2="170.7751">
						<stop  offset="0" style="stop-color:#FF928E"/>
						<stop  offset="1" style="stop-color:#FE7062"/>
					</linearGradient>
					<circle style="fill:url(#SVGID_00000129165717448115505620000006904256492125640633_);" cx="1506.53" cy="991.52" r="189.59"/>
					<path class="st7" d="M1350.19,917.34c-0.69,0-1.4-0.16-2.06-0.49c-2.26-1.14-3.16-3.89-2.02-6.14
						c30.75-60.92,92.22-98.77,160.41-98.77c10.89,0,21.79,0.98,32.39,2.91c2.49,0.45,4.13,2.84,3.68,5.32
						c-0.46,2.49-2.83,4.13-5.32,3.68c-10.07-1.84-20.42-2.77-30.75-2.77c-64.72,0-123.06,35.92-152.25,93.74
						C1353.47,916.42,1351.86,917.34,1350.19,917.34z"/>
					
						<ellipse transform="matrix(0.7071 -0.7071 0.7071 0.7071 -261.5677 1359.8134)" class="st8" cx="1510.66" cy="995.65" rx="160.46" ry="160.46"/>
					<g>
						
							<linearGradient id="SVGID_00000158751770405204850070000016603764551375381926_" gradientUnits="userSpaceOnUse" x1="1847.9207" y1="-356.2568" x2="1716.9744" y2="172.5637">
							<stop  offset="0" style="stop-color:#FF928E"/>
							<stop  offset="1" style="stop-color:#FE7062"/>
						</linearGradient>
						<path style="fill:url(#SVGID_00000158751770405204850070000016603764551375381926_);" d="M1494.91,1114.94v-17.46
							c-18.2-0.73-36.2-5.02-48.98-10.62c-4.57-2-6.89-7.12-5.58-11.93l4.44-16.26c1.63-5.97,8.11-9.05,13.82-6.66
							c12.68,5.32,28.34,9.52,45.23,9.52c17.53,0,30.6-5.94,30.6-18.12c0-10.99-10.1-17.53-34.46-24.06
							c-34.76-9.51-59.72-24.66-59.72-55.26c0-27.63,20.2-48.73,55.26-54.37v-17.46c0-5.62,4.55-10.17,10.17-10.17h10.26
							c5.62,0,10.17,4.55,10.17,10.17v15.68c16.84,0.67,29.1,3.55,38.83,6.97c4.98,1.75,7.71,7.12,6.33,12.22l-4.08,15.04
							c-1.57,5.8-7.77,8.98-13.39,6.85c-8.96-3.39-21.62-6.91-38.08-6.91c-20.8,0-26.74,8.62-26.74,16.34
							c0,9.51,12.48,16.04,39.51,24.36c38.62,11.59,54.67,27.63,54.67,56.45c0,26.44-19.61,50.21-57.64,56.15v19.54
							c0,5.62-4.55,10.17-10.17,10.17h-10.26C1499.46,1125.11,1494.91,1120.56,1494.91,1114.94z"/>
					</g>
				</g>
			</g>
			<g>
				
					<linearGradient id="SVGID_00000088811641515277087470000006865596349090299577_" gradientUnits="userSpaceOnUse" x1="1685.7201" y1="1551.2179" x2="1620.8472" y2="684.287">
					<stop  offset="0" style="stop-color:#4F52FF"/>
					<stop  offset="1" style="stop-color:#4042E2"/>
				</linearGradient>
				<path style="fill:url(#SVGID_00000088811641515277087470000006865596349090299577_);" d="M1403.14,1446.45
					c0,0-285.49-398.91-136.88-367.62c148.61,31.29,164.26,113.42,332.42,23.47s207.28-172.08,238.56-50.84
					c31.29,121.24,33.54,109.08,162.6,85.62c129.06-23.47,122.89,66.91-80.47,270.27
					C1700.37,1407.35,1403.14,1446.45,1403.14,1446.45z"/>
				
					<linearGradient id="SVGID_00000160872810182832271630000008387739997680332461_" gradientUnits="userSpaceOnUse" x1="1392.5083" y1="3525.874" x2="2007.9642" y2="1097.8755">
					<stop  offset="0" style="stop-color:#4F52FF"/>
					<stop  offset="1" style="stop-color:#4042E2"/>
				</linearGradient>
				<path style="fill:url(#SVGID_00000160872810182832271630000008387739997680332461_);" d="M1382.29,1478.22
					c0,0-928.27,651.47-653.37,1469.82c0,0,165.36,274.77,900.6,274.77s821.79-219.86,900.01-360.65
					c62.57-203.36,133.93-698.79-610.15-1383.95H1382.29z"/>
				<path class="st1" d="M1966.49,1447.16c0,20.52-16.63,37.15-37.15,37.15h-555.36c-20.52,0-37.15-16.63-37.15-37.15v-5.65
					c0-20.52,16.63-37.15,37.15-37.15h555.36c20.52,0,37.15,16.63,37.15,37.15V1447.16z"/>
				<g>
					<g>
						
							<linearGradient id="SVGID_00000066484921303975482940000011361076381049477255_" gradientUnits="userSpaceOnUse" x1="2300.1809" y1="-244.2681" x2="2169.2349" y2="284.5517">
							<stop  offset="0" style="stop-color:#FF928E"/>
							<stop  offset="1" style="stop-color:#FE7062"/>
						</linearGradient>
						<path style="fill:url(#SVGID_00000066484921303975482940000011361076381049477255_);" d="M1583.6,2839.05v-72.56
							c-75.64-3.03-150.46-20.88-203.6-44.14c-18.98-8.31-28.65-29.6-23.2-49.59l18.43-67.59c6.76-24.79,33.73-37.62,57.43-27.68
							c52.72,22.1,117.8,39.58,187.99,39.58c72.86,0,127.19-24.7,127.19-75.34c0-45.69-41.98-72.85-143.25-100.02
							c-144.48-39.52-248.21-102.5-248.21-229.69c0-114.85,83.98-202.52,229.69-225.98v-72.57c0-23.35,18.93-42.28,42.28-42.28
							h42.63c23.35,0,42.28,18.93,42.28,42.28v65.15c70,2.8,120.95,14.77,161.38,28.98c20.72,7.28,32.04,29.6,26.29,50.79
							l-16.95,62.51c-6.54,24.11-32.3,37.31-55.66,28.48c-37.23-14.08-89.86-28.74-158.28-28.74c-86.44,0-111.14,35.81-111.14,67.92
							c0,39.52,51.86,66.68,164.24,101.26c160.54,48.16,227.22,114.84,227.22,234.63c0,109.9-81.5,208.7-239.56,233.4v81.21
							c0,23.35-18.93,42.28-42.28,42.28h-42.64C1602.53,2881.33,1583.6,2862.4,1583.6,2839.05z"/>
					</g>
					<g>
						<path class="st4" d="M1672.45,2891.32h-42.64c-28.82,0-52.27-23.44-52.27-52.27v-63.04c-69.22-3.92-142.43-20.35-197.62-44.51
							c-23.21-10.16-35.61-36.54-28.84-61.37l18.44-67.59c3.95-14.47,13.93-26.54,27.38-33.11c13.61-6.63,29.48-7.06,43.55-1.16
							c42.24,17.71,108.47,38.81,184.12,38.81c27.5,0,117.2-4.71,117.2-65.35c0-38.81-38.09-64.14-135.84-90.36
							c-229.12-62.66-255.62-166.6-255.62-239.34c0-119.5,87.76-208.73,229.69-234.42v-64.14c0-28.82,23.45-52.28,52.27-52.28h42.63
							c28.83,0,52.28,23.45,52.28,52.28v55.62c57.02,3.03,107.71,12.57,154.7,29.09c25.43,8.93,39.75,36.53,32.62,62.84
							l-16.95,62.51c-3.86,14.22-13.57,26.21-26.65,32.88c-13.06,6.69-28.45,7.53-42.19,2.32
							c-49.99-18.91-100.61-28.09-154.74-28.09c-64.28,0-101.14,21.11-101.14,57.92c0,31.19,44.07,56.9,157.18,91.71
							c166.38,49.92,234.28,120.66,234.28,244.18c0,121.9-93.72,216.13-239.57,241.88v72.74
							C1724.72,2867.88,1701.27,2891.32,1672.45,2891.32z M1419.92,2584.12c-4.9,0-9.78,1.09-14.26,3.28
							c-8.4,4.1-14.39,11.34-16.86,20.4l-18.44,67.59c-4.18,15.33,3.37,31.58,17.56,37.8c55.59,24.33,130.36,40.52,200,43.31
							l9.59,0.38v82.17c0,17.79,14.48,32.28,32.28,32.28h42.64c17.8,0,32.28-14.48,32.28-32.28v-89.76l8.45-1.33
							c142.56-22.27,231.11-107.93,231.11-223.53c0-114.44-61.71-177.53-220.09-225.05c-108.56-33.41-171.36-62.24-171.36-110.84
							c0-72.29,92.72-77.91,121.13-77.91c56.59,0,109.52,9.61,161.81,29.38c8.62,3.26,17.87,2.75,26.03-1.42
							c8.19-4.19,14.04-11.4,16.45-20.32l16.95-62.51c4.41-16.24-4.36-33.26-19.96-38.75c-47.7-16.77-99.54-26.06-158.47-28.42
							l-9.59-0.38v-74.76c0-17.8-14.48-32.29-32.29-32.29h-42.63c-17.8,0-32.28,14.48-32.28,32.29v81.08l-8.41,1.36
							c-138.56,22.3-221.28,103.09-221.28,216.12c0,106.62,74.28,174.49,240.86,220.04c90.38,24.25,150.6,52.18,150.6,109.66
							c0,53.44-51.29,85.34-137.19,85.34c-62.51,0-128.85-13.96-191.85-40.37C1428.62,2584.98,1424.26,2584.12,1419.92,2584.12z"/>
					</g>
				</g>
			</g>
		</g>
		<g>
			
				<linearGradient id="SVGID_00000083053909790317171900000008366717045185518215_" gradientUnits="userSpaceOnUse" x1="3735.1675" y1="2061.0432" x2="3576.0269" y2="2061.0432" gradientTransform="matrix(1 0 0 1 -3088.2981 0)">
				<stop  offset="0" style="stop-color:#FEBBBA"/>
				<stop  offset="1" style="stop-color:#FF928E"/>
			</linearGradient>
			<path style="fill:url(#SVGID_00000083053909790317171900000008366717045185518215_);" d="M487.73,2037.24
				c0,0,0,184.01,80.67,169.01c49.29-9.17,78.47-207.39,78.47-207.39s-51-113.59-56.69-76.41
				C548.78,2192.73,517.95,1985.87,487.73,2037.24z"/>
			
				<linearGradient id="SVGID_00000170275533793495023640000004828184811148520622_" gradientUnits="userSpaceOnUse" x1="653.7742" y1="3472.7473" x2="594.2671" y2="2751.231" gradientTransform="matrix(1 0 0 1 -22.2494 0)">
				<stop  offset="0" style="stop-color:#09005D"/>
				<stop  offset="1" style="stop-color:#1A0F91"/>
			</linearGradient>
			<path style="fill:url(#SVGID_00000170275533793495023640000004828184811148520622_);" d="M704.39,3129.43
				c0,0,6.09,34.49,9.08,68.62c1.17,13.34-9.12,24.93-22.5,25.48c-45.46,1.89-142.7,5.58-177.59,4.02
				c-5.24-0.23-8.67-5.6-6.73-10.48l0,0c1.63-4.09,4.76-7.39,8.76-9.23l160.62-73.82L704.39,3129.43z"/>
			
				<linearGradient id="SVGID_00000055675325216493787990000003210026914979250560_" gradientUnits="userSpaceOnUse" x1="-1419.3823" y1="3129.2881" x2="-1367.1359" y2="3129.2881" gradientTransform="matrix(-1 0 0 1 -710 0)">
				<stop  offset="0" style="stop-color:#FEBBBA"/>
				<stop  offset="1" style="stop-color:#FF928E"/>
			</linearGradient>
			<path style="fill:url(#SVGID_00000055675325216493787990000003210026914979250560_);" d="M709.38,3109.17l-4.89,41.25
				c0,0-28.14,13.1-47.35-1.65l11.65-45.97L709.38,3109.17z"/>
			
				<linearGradient id="SVGID_00000119832924259803301770000014390330043339657621_" gradientUnits="userSpaceOnUse" x1="-1478.4144" y1="3328.083" x2="-1442.7561" y2="2371.2678" gradientTransform="matrix(-1 0 0 1 -710 0)">
				<stop  offset="0" style="stop-color:#09005D"/>
				<stop  offset="1" style="stop-color:#1A0F91"/>
			</linearGradient>
			<path style="fill:url(#SVGID_00000119832924259803301770000014390330043339657621_);" d="M705.7,2333.69
				c2.11,10.77,11.35,537.53-44.96,773.59c-0.92,3.85,1.03,7.82,4.7,9.32c8.64,3.53,25.57,8.64,45.86,9.32
				c6.28,0.21,11.92-3.87,13.69-9.9c16.09-54.77,93.22-329.18,103.28-591.32c11.24-292.91,0-9.97,0-9.97l-6.59-181.06L705.7,2333.69
				z"/>
			
				<linearGradient id="SVGID_00000083775726844536264460000006756715616553914288_" gradientUnits="userSpaceOnUse" x1="908.3506" y1="3451.7517" x2="848.8434" y2="2730.2346" gradientTransform="matrix(1 0 0 1 -22.2494 0)">
				<stop  offset="0" style="stop-color:#09005D"/>
				<stop  offset="1" style="stop-color:#1A0F91"/>
			</linearGradient>
			<path style="fill:url(#SVGID_00000083775726844536264460000006756715616553914288_);" d="M889.16,3147.42
				c0,0,9.7,17.41,19.08,63.67c1.69,8.35-4.14,16.35-12.63,17.18c-15.01,1.48-38.12,3.37-56.63,3.25
				c-8.53-0.06-15.19-7.49-14.16-15.96c2.05-16.89,8.44-44.59,28.17-66.18L889.16,3147.42z"/>
			
				<linearGradient id="SVGID_00000155846315938374470320000008527436543821604026_" gradientUnits="userSpaceOnUse" x1="-1607.6755" y1="3126.6089" x2="-1562.5664" y2="3126.6089" gradientTransform="matrix(-1 0 0 1 -710 0)">
				<stop  offset="0" style="stop-color:#FEBBBA"/>
				<stop  offset="1" style="stop-color:#FF928E"/>
			</linearGradient>
			<path style="fill:url(#SVGID_00000155846315938374470320000008527436543821604026_);" d="M897.68,3094.37l-11.43,62.38
				c0,0-11.31,8.41-33.67,2.31l5.46-67.11L897.68,3094.37z"/>
			
				<linearGradient id="SVGID_00000148634273913524810280000017353506390927672200_" gradientUnits="userSpaceOnUse" x1="-1566.603" y1="3324.7966" x2="-1530.9448" y2="2367.9836" gradientTransform="matrix(-1 0 0 1 -710 0)">
				<stop  offset="0" style="stop-color:#09005D"/>
				<stop  offset="1" style="stop-color:#1A0F91"/>
			</linearGradient>
			<path style="fill:url(#SVGID_00000148634273913524810280000017353506390927672200_);" d="M928.57,2349.85
				c46.05,277.92-9.99,686.91-28.89,766.96c-1.16,4.9-5.11,8.66-10.08,9.48c-8.44,1.4-22.33,2.54-36.02-1.44
				c-4.72-1.37-8.03-5.63-8.22-10.53c-2.54-64.72,2.03-462.02-40.88-619.03c-2.17-7.96-7.03-14.9-13.76-19.68l-83.29-59.21
				l-6.38-95.7L928.57,2349.85z"/>
			<g>
				
					<linearGradient id="SVGID_00000163764900960818863680000000859421762582713771_" gradientUnits="userSpaceOnUse" x1="1011.572" y1="1615.7435" x2="795.0081" y2="2063.9812">
					<stop  offset="0" style="stop-color:#FF928E"/>
					<stop  offset="1" style="stop-color:#FE7062"/>
				</linearGradient>
				<path style="fill:url(#SVGID_00000163764900960818863680000000859421762582713771_);" d="M630.05,1833.74
					c168.15-16.81,295.36,25.74,295.36,25.74c41.14,240.03,7.19,516.9,7.19,516.9c-106.84,28.02-227.37-17.13-227.37-17.13
					c-17.76-100.33-91.75-332-91.75-332c-33.71-4.18-65.35,12.85-58.08-33.96C562.68,1946.49,608.87,1835.86,630.05,1833.74z"/>
			</g>
			
				<linearGradient id="SVGID_00000049919126725492310860000010704845158679887290_" gradientUnits="userSpaceOnUse" x1="1136.9423" y1="1676.3152" x2="920.3777" y2="2124.554">
				<stop  offset="0" style="stop-color:#FF928E"/>
				<stop  offset="1" style="stop-color:#FE7062"/>
			</linearGradient>
			<path style="fill:url(#SVGID_00000049919126725492310860000010704845158679887290_);" d="M872.48,1993.11l52.93-133.63
				c0,0,128.91,87.59,150.11,198.64c-24.36,1.79-68.68,8.13-112.06,30.03C953.92,2035.71,872.48,1993.11,872.48,1993.11z"/>
			
				<linearGradient id="SVGID_00000177448625846117439820000018306219567082676633_" gradientUnits="userSpaceOnUse" x1="-1777.2452" y1="2144.3359" x2="-1439.4626" y2="2144.3359" gradientTransform="matrix(-1 0 0 1 -710 0)">
				<stop  offset="0" style="stop-color:#FEBBBA"/>
				<stop  offset="1" style="stop-color:#FF928E"/>
			</linearGradient>
			<path style="fill:url(#SVGID_00000177448625846117439820000018306219567082676633_);" d="M748.62,2118.85
				c0,0,144.73,81.79,193.56,11.95c10.14-14.5,12.56-28.92,10.06-42.66c43.38-21.91,87.7-28.24,112.06-30.03
				c6.39,33.48,3.01,69.08-16.66,105.07c-85.54,156.48-318.18-8.65-318.18-8.65L748.62,2118.85z"/>
			<g>
				
					<linearGradient id="SVGID_00000181775430621665841890000010042366702008797364_" gradientUnits="userSpaceOnUse" x1="3770.4709" y1="1926.8617" x2="3681.574" y2="2135.428" gradientTransform="matrix(1 0 0 1 -3088.2981 0)">
					<stop  offset="0" style="stop-color:#09005D"/>
					<stop  offset="1" style="stop-color:#1A0F91"/>
				</linearGradient>
				<path style="fill:url(#SVGID_00000181775430621665841890000010042366702008797364_);" d="M722.07,2174.34l-47.48-165.82
					c-0.54-1.88-2.14-3.26-4.09-3.48c-8.6-1-33.53-3.82-62.31-6.26c-34.67-2.93-74.93-5.31-98.99-3.29
					c-3.42,0.29-5.49,3.9-3.97,6.98c13.68,27.68,69.96,140.27,98.14,177.16c0.93,1.22,2.38,1.94,3.91,1.92l110.17-1.02
					C720.65,2180.5,722.95,2177.42,722.07,2174.34z"/>
				
					<linearGradient id="SVGID_00000067217838219828780340000006637759223464677270_" gradientUnits="userSpaceOnUse" x1="-1464.5415" y1="2108.9194" x2="-1359.3073" y2="2108.9194" gradientTransform="matrix(-1 0 0 1 -710 0)">
					<stop  offset="0" style="stop-color:#FEBBBA"/>
					<stop  offset="1" style="stop-color:#FF928E"/>
				</linearGradient>
				<path style="fill:url(#SVGID_00000067217838219828780340000006637759223464677270_);" d="M746.92,2155.69
					c0,0,11-45.24,6.57-61.3c-4.44-16.05-13.04-36.69-41.7-32.1c-28.66,4.59-62.48,16.66-62.48,16.66s1.71,20.91,23.49,14.16
					l-13.51,10.45c0,0,1.93,16.74,20.33,7.8l-12.57,13.86c0,0,7.9,13.75,21.44,4.93C702.04,2121.34,708.53,2161.14,746.92,2155.69z"
					/>
				
					<linearGradient id="SVGID_00000100353811378029445220000015368432374705074858_" gradientUnits="userSpaceOnUse" x1="2957.6472" y1="3273.2578" x2="3062.885" y2="3273.2578" gradientTransform="matrix(0.8472 -0.5312 0.5312 0.8472 -3749.9202 848.1048)">
					<stop  offset="0" style="stop-color:#FEBBBA"/>
					<stop  offset="1" style="stop-color:#FF928E"/>
				</linearGradient>
				<path style="fill:url(#SVGID_00000100353811378029445220000015368432374705074858_);" d="M525.85,2085.68
					c0,0-33.36-32.49-38.12-48.44c-4.77-15.96-8.44-38.01,18.28-49.35c26.72-11.34,61.78-19.07,61.78-19.07s9.66,18.62-12.38,24.48
					l17,1.68c0,0,7.26,15.21-13.09,17.41l18.01,5.07c0,0,0.61,15.85-15.55,15.57C545.63,2032.74,561.27,2069.9,525.85,2085.68z"/>
			</g>
			
				<linearGradient id="SVGID_00000076584057049399436290000009844328290734670248_" gradientUnits="userSpaceOnUse" x1="-1522.9749" y1="1800.3678" x2="-1389.4269" y2="1800.3678" gradientTransform="matrix(-1 0 0 1 -710 0)">
				<stop  offset="0" style="stop-color:#FEBBBA"/>
				<stop  offset="1" style="stop-color:#FF928E"/>
			</linearGradient>
			<path style="fill:url(#SVGID_00000076584057049399436290000009844328290734670248_);" d="M768.81,1728.34l43.91,126.99
				c0.73,2.1-0.14,4.43-2.09,5.51c-11.97,6.62-55.1,25.75-107.06-7.2c-5.41-3.43-9.1-9.03-9.92-15.39l-14.22-109.91H768.81z"/>
			<g>
				
					<linearGradient id="SVGID_00000161620425547025718990000012363267952912393898_" gradientUnits="userSpaceOnUse" x1="-6110.9844" y1="-690.4801" x2="-6160.8892" y2="-855.0783" gradientTransform="matrix(-0.9948 -0.1017 -0.1017 0.9948 -5471.0815 1862.0973)">
					<stop  offset="0" style="stop-color:#FEBBBA"/>
					<stop  offset="1" style="stop-color:#FF928E"/>
				</linearGradient>
				<path style="fill:url(#SVGID_00000161620425547025718990000012363267952912393898_);" d="M637.69,1696.91
					c0,0,14.19,101.8,40.7,127.87c26.51,26.07,73.37-11.12,98.17-65.84l-27.95-100.77L637.69,1696.91z"/>
				
					<linearGradient id="SVGID_00000064337640984614746590000006508818417267291792_" gradientUnits="userSpaceOnUse" x1="-6156.0117" y1="-977.2674" x2="-6114.2661" y2="-739.1633" gradientTransform="matrix(-0.9948 -0.1017 -0.1017 0.9948 -5471.0815 1862.0973)">
					<stop  offset="0" style="stop-color:#09005D"/>
					<stop  offset="1" style="stop-color:#1A0F91"/>
				</linearGradient>
				<path style="fill:url(#SVGID_00000064337640984614746590000006508818417267291792_);" d="M746.45,1721.31
					c-2.27,0.48-4.42-1.16-4.53-3.48c-0.33-7.05-1.53-21.05-5.84-30.94c0,0,3.76-9.58-25.44,2.49
					c-29.2,12.07-73.02,29.7-96.16,14.17c-22.57-15.15-40.2-81.57,21.66-63.27c2.35,0.7,4.75-0.99,4.82-3.44
					c0.3-10.59,3.82-34.66,29.09-39.92c23.66-4.92,35.14,6.71,39.67,13.48c1.33,1.99,4.16,2.24,5.8,0.5
					c7.78-8.26,28.37-25.43,54.58-10.53c21.58,12.27,23.68,26.55,22.42,35.19c-0.41,2.8,2.25,5,4.92,4.08
					c7.25-2.48,18.55-3,27.85,11.46c12.86,19.98-9.85,33.85-16.6,37.4c-1.11,0.58-1.87,1.66-2,2.9c-1.04,9.6-6.82,51.36-30.25,72.85
					c-2.03,1.86-5.33,0.92-6.13-1.72l-12.23-40.19c-0.57-1.87-2.47-2.99-4.38-2.58L746.45,1721.31z"/>
				
					<linearGradient id="SVGID_00000056404274670505190590000015698178993189664702_" gradientUnits="userSpaceOnUse" x1="-6162.0005" y1="-691.2459" x2="-6206.8999" y2="-839.3354" gradientTransform="matrix(-0.9948 -0.1017 -0.1017 0.9948 -5471.0815 1862.0973)">
					<stop  offset="0" style="stop-color:#FEBBBA"/>
					<stop  offset="1" style="stop-color:#FF928E"/>
				</linearGradient>
				<path style="fill:url(#SVGID_00000056404274670505190590000015698178993189664702_);" d="M745.31,1729.1
					c0,0,13.99-39.22,27.66-24.62c13.67,14.59-8.19,41.41-25.93,45.13L745.31,1729.1z"/>
			</g>
		</g>
		<g>
			<path class="st39" d="M588.91,1438.56c-15.19-0.15-27.51-12.25-27.51-27.02v-255.41c0-14.77,12.33-26.45,27.51-26.09
				l584.59,13.92c14.38,0.34,26.02,12.25,26.02,26.6v236.17c0,15-12.1,27.19-27.09,27.3L588.91,1438.56z"/>
			<g>
				<polygon class="st40" points="1105.19,1236.27 809.68,1228.47 809.68,1196.98 1105.19,1206.26 				"/>
				<polygon class="st40" points="1105.19,1296.28 809.68,1291.45 809.68,1259.96 1105.19,1266.27 				"/>
				<polygon class="st40" points="1105.19,1356.29 809.68,1354.44 809.68,1322.95 1105.19,1326.28 				"/>
			</g>
			<g>
				<path class="st4" d="M683.48,1146.15L683.48,1146.15c4.3,0.41,7.79,4.28,7.79,8.65v14.91c8.6,0.96,17.22,2.46,25.85,4.48
					c6.36,1.5,12.68,3.27,18.96,5.34c3.76,1.24,6.32,5.03,5.94,8.95l-1.83,18.7c-0.49,4.96-5.39,7.88-10.01,5.82
					c-4.13-1.84-8.37-3.42-12.72-4.74c-7.58-2.29-15.58-3.79-23.99-4.48l-2.2-0.18v42.71c22.45,6.28,38.93,14.73,49.58,25.35
					c10.6,10.57,15.88,23.75,15.88,39.58c0,17.11-5.84,30.81-17.57,41.14c-11.79,10.39-28.32,16.23-49.69,17.5v16.46
					c0,4.37-3.49,7.78-7.79,7.61l-0.14-0.01c-4.32-0.17-7.82-3.87-7.82-8.25v-16.24l-3.47-0.16c-10.02-0.45-19.62-1.47-28.79-3.07
					c-6.79-1.18-13.42-2.71-19.89-4.58c-3.91-1.13-6.6-4.86-6.24-8.86l2.16-24.04c0.47-5.2,5.69-8.22,10.63-6.27
					c5.76,2.27,11.59,4.19,17.5,5.74c9.2,2.43,18.52,3.98,27.97,4.67l0.14-47.51c-21.55-5.33-37.68-13.23-48.27-23.69
					c-10.65-10.51-15.99-23.96-15.99-40.31c0-16.92,5.79-29.98,17.33-39.15c11.48-9.12,27.81-13.66,48.87-13.65v-15.25
					C675.67,1148.96,679.17,1145.74,683.48,1146.15z M675.67,1203.16c-6.66,0.48-11.85,2.31-15.57,5.49
					c-3.72,3.18-5.59,7.46-5.59,12.82c0,5.08,1.72,9.33,5.17,12.74c3.44,3.4,8.77,6.12,15.99,8.16V1203.16z M689.48,1289.19v43.57
					c7.24,0.01,12.79-1.71,16.66-5.18c3.87-3.46,5.8-8.35,5.8-14.67c0-5.76-1.8-10.54-5.39-14.34
					C702.95,1294.77,697.27,1291.64,689.48,1289.19z"/>
			</g>
			<path class="st39" d="M871.16,1436.37l25.44,61.44c1.93,4.67,8.18,5.51,11.28,1.53l49.56-63.64L871.16,1436.37z"/>
		</g>
		<g>
			<path class="st39" d="M2632.04,1682.55c-15.19-0.15-27.51-12.25-27.51-27.02v-255.41c0-14.77,12.33-26.45,27.51-26.09
				l584.59,13.92c14.38,0.34,26.02,12.25,26.02,26.6v236.17c0,15-12.1,27.19-27.09,27.3L2632.04,1682.55z"/>
			<g>
				<polygon class="st40" points="3171.83,1480.26 2672.13,1472.46 2672.13,1440.97 3171.83,1450.25 				"/>
				<polygon class="st40" points="3171.83,1540.27 2672.13,1535.45 2672.13,1503.96 3171.83,1510.27 				"/>
				<polygon class="st40" points="3171.83,1600.28 2672.13,1598.43 2672.13,1566.94 3171.83,1570.28 				"/>
			</g>
			<path class="st39" d="M2914.29,1680.36l25.44,61.44c1.93,4.67,8.18,5.51,11.28,1.53l49.56-63.64L2914.29,1680.36z"/>
		</g>
		<g>
			
				<linearGradient id="SVGID_00000150799367948316709460000002678297252016613036_" gradientUnits="userSpaceOnUse" x1="-3103.6003" y1="1269.1199" x2="-2966.1123" y2="1614.0059" gradientTransform="matrix(-0.9811 -0.1933 -0.1933 0.9811 63.0298 -2.8014)">
				<stop  offset="0" style="stop-color:#FEBBBA"/>
				<stop  offset="1" style="stop-color:#FF928E"/>
			</linearGradient>
			<path style="fill:url(#SVGID_00000150799367948316709460000002678297252016613036_);" d="M2704.07,1853.57l128.08,263.05
				l-33.43,88.54l-63.53-10.24l6.63-57.7c1.05-9.15-0.65-18.4-4.88-26.57l-85.37-164.97l32.76-91.04
				C2687.55,1845.71,2699.91,1845.04,2704.07,1853.57z"/>
			
				<linearGradient id="SVGID_00000115488028973216397800000016741566863086632073_" gradientUnits="userSpaceOnUse" x1="-4967.1089" y1="1486.1002" x2="-4872.0112" y2="1724.6501" gradientTransform="matrix(-1 0 0 1 -2351.4717 0)">
				<stop  offset="0" style="stop-color:#09005D"/>
				<stop  offset="1" style="stop-color:#1A0F91"/>
			</linearGradient>
			<path style="fill:url(#SVGID_00000115488028973216397800000016741566863086632073_);" d="M2569.71,1618.59
				c0,0-36.2,15.37-42.86,33.03c-5.34,14.17-45.37,16-49.32,43.87c-2.04,14.39-14.24,25.91-30.65,28.11
				c-40.88,5.47-103.89,24.01-113.97,85.98c-7.69,47.3,19.93,65.24,48.91,71.45c21.29,4.56,35.44,22.64,31.13,41.4
				c-4.13,18,2.03,38.81,37.74,55.26c80.04,36.87,159.96-87.35,159.96-87.35l16.38-216.9L2569.71,1618.59z"/>
			
				<linearGradient id="SVGID_00000064356345300288073710000008539676599741154454_" gradientUnits="userSpaceOnUse" x1="-4598.5942" y1="3160.8774" x2="-4507.5386" y2="3160.8774" gradientTransform="matrix(-1 0 0 1 -2351.4717 0)">
				<stop  offset="0" style="stop-color:#09005D"/>
				<stop  offset="1" style="stop-color:#1A0F91"/>
			</linearGradient>
			<path style="fill:url(#SVGID_00000064356345300288073710000008539676599741154454_);" d="M2247.01,3139.04l-5.18,42.58
				c-0.98,8.08-7.34,14.46-15.43,15.39c-13.65,1.56-35.55,3.16-56.98,0.89c-9.41-0.99-15.51-10.52-12.65-19.53
				c5.22-16.44,14.78-41.11,28.56-55.63h47.23C2241.3,3122.73,2248.07,3130.37,2247.01,3139.04z"/>
			
				<linearGradient id="SVGID_00000126313522372276370220000001603219199482616764_" gradientUnits="userSpaceOnUse" x1="-4983.3516" y1="3519.9512" x2="-4852.3154" y2="1988.4692" gradientTransform="matrix(-1 0 0 1 -2351.4717 0)">
				<stop  offset="0" style="stop-color:#FEBBBA"/>
				<stop  offset="1" style="stop-color:#FF928E"/>
			</linearGradient>
			<path style="fill:url(#SVGID_00000126313522372276370220000001603219199482616764_);" d="M2616.94,2640.28l7.97,46.89
				c0,0-26.7,270.41-31.44,378.57c-0.74,16.96,3.64,33.72,12.54,48.17l46.42,75.38l-117.98-69.62l-2.35-14.4l19.31-26.55
				l-25.3-302.93c-1.49-17.8,2.19-35.64,10.58-51.41l24.4-45.84L2616.94,2640.28z"/>
			
				<linearGradient id="SVGID_00000141418772728973604530000006680490792895287941_" gradientUnits="userSpaceOnUse" x1="-5021.6313" y1="3144.2529" x2="-4874.2959" y2="3144.2529" gradientTransform="matrix(-1 0 0 1 -2351.4717 0)">
				<stop  offset="0" style="stop-color:#09005D"/>
				<stop  offset="1" style="stop-color:#1A0F91"/>
			</linearGradient>
			<path style="fill:url(#SVGID_00000141418772728973604530000006680490792895287941_);" d="M2660.2,3200.22h-37.65
				c-7.05,0-13.69-3.24-17.99-8.82c-11.74-15.25-36.05-45-47.68-45.78c-15.65-1.05-13.65,54.6-13.65,54.6h-8.77l-11.11-69.15
				c-2.8-17.4,5.86-34.63,21.48-42.78l0,0c0,0,3.58,26.46,22.98,38.17c19.4,11.7,78.95,53.62,78.95,53.62s7.29-1.04,15.3,0.41
				C2673.94,3182.63,2672.28,3200.22,2660.2,3200.22z"/>
			
				<linearGradient id="SVGID_00000052084276091354552140000007827582800119168652_" gradientUnits="userSpaceOnUse" x1="-4719.7646" y1="3542.7388" x2="-4588.6943" y2="2010.8544" gradientTransform="matrix(-1 0 0 1 -2351.4717 0)">
				<stop  offset="0" style="stop-color:#FEBBBA"/>
				<stop  offset="1" style="stop-color:#FF928E"/>
			</linearGradient>
			<path style="fill:url(#SVGID_00000052084276091354552140000007827582800119168652_);" d="M2455.36,2662.55
				c0,0-156.39,296.66-181.26,364.4c-24.86,67.73-33.57,124.24-33.9,129.59c-0.52,8.36-10.92,16.38-39.59,16.38
				c-14.79,0-22.04-5.93-25.59-11.67c-3.03-4.9-3.18-11.02-0.63-16.19c9.05-18.31,37.76-76.82,48.39-103.36
				c12.69-31.68,40-175.27,54.98-225.2c14.98-49.92,31.9-104.08,97.12-153.96C2374.88,2662.55,2419.65,2618.7,2455.36,2662.55z"/>
			
				<linearGradient id="SVGID_00000093138092377826355930000004307711730275409583_" gradientUnits="userSpaceOnUse" x1="3526.093" y1="1524.7894" x2="3012.3838" y2="1811.8624">
				<stop  offset="0" style="stop-color:#FF928E"/>
				<stop  offset="1" style="stop-color:#FE7062"/>
			</linearGradient>
			<path style="fill:url(#SVGID_00000093138092377826355930000004307711730275409583_);" d="M2554.15,2176.45
				c40.34-170.95-68.08-261.37-68.08-261.37c44.53-42.74,117.3-72.39,158.07-86.65c18.98-6.63,40.07-2.53,55.15,10.77
				c32.2,28.4,82.99,81.29,73.79,125.66c-7.8,37.6-78.81,225.23-78.81,225.23S2628.62,2221.17,2554.15,2176.45z"/>
			<path class="st1" d="M2464.71,2261.08c16.42-49.46,89.45-84.63,89.45-84.63c74.47,44.73,140.13,13.65,140.13,13.65
				s14.73,56.29,4.56,108.59c-10.16,52.31-73.93,388.48-73.93,388.48c-100.47,20.36-255-20.48-255-20.48
				C2433.91,2553.07,2448.29,2310.54,2464.71,2261.08z"/>
			
				<linearGradient id="SVGID_00000031167248495748535190000016790391520798006710_" gradientUnits="userSpaceOnUse" x1="-2520.0981" y1="1494.0436" x2="-2729.5015" y2="1889.3223" gradientTransform="matrix(-1 0 0 1 -59.9161 0)">
				<stop  offset="0" style="stop-color:#FEBBBA"/>
				<stop  offset="1" style="stop-color:#FF928E"/>
			</linearGradient>
			<path style="fill:url(#SVGID_00000031167248495748535190000016790391520798006710_);" d="M2600.98,1705.78l-32.8,147.33
				c-3.14,12.98,8.69,10.85,21.81,8.38c21.49-4.05,49.18-12.39,58.44-29.11c0.94-1.7,1.41-3.63,1.68-5.55l14.09-102.16
				c1.12-8.1-3.26-15.97-10.74-19.29l-27.19-12.06C2615.79,1688.67,2603.67,1694.65,2600.98,1705.78z"/>
			<g>
				
					<linearGradient id="SVGID_00000050625801468434377290000017810563224382046111_" gradientUnits="userSpaceOnUse" x1="-4527.5977" y1="2121.376" x2="-4312.3096" y2="1738.2351" gradientTransform="matrix(-0.9657 0.2594 0.2594 0.9657 -2178.7686 891.7207)">
					<stop  offset="0" style="stop-color:#FEBBBA"/>
					<stop  offset="1" style="stop-color:#FF928E"/>
				</linearGradient>
				<path style="fill:url(#SVGID_00000050625801468434377290000017810563224382046111_);" d="M2620.36,1579.84
					c0,0,41.77,5.76,81.84,53.12c40.07,47.36,27.75,77.51,4.74,87.37c-23,9.86-58.16,13.08-105.41-11.77
					C2554.27,1683.71,2566.55,1574.17,2620.36,1579.84z"/>
				
					<linearGradient id="SVGID_00000106107179832182324070000002865222761514716583_" gradientUnits="userSpaceOnUse" x1="-4469.4644" y1="1792.4099" x2="-4371.2021" y2="2038.8989" gradientTransform="matrix(-0.9657 0.2594 0.2594 0.9657 -2178.7686 891.7207)">
					<stop  offset="0" style="stop-color:#09005D"/>
					<stop  offset="1" style="stop-color:#1A0F91"/>
				</linearGradient>
				<path style="fill:url(#SVGID_00000106107179832182324070000002865222761514716583_);" d="M2618.43,1678.66
					c0,0-49.61-71.71,20.46-91.54l19.65,7.12c0,0,13.99-50.9-34-60.52c-47.99-9.61-111.83,42.41-114.52,104.31
					c-2.69,61.89,0.81,53.61,38.12,72.86c37.31,19.24,47.79,12.31,47.79,12.31s-7.01-22.56-4.03-38.01
					c2.98-15.45,22.74-3.08,22.74-3.08L2618.43,1678.66z"/>
				
					<linearGradient id="SVGID_00000052797909382078833440000013036202233033234563_" gradientUnits="userSpaceOnUse" x1="-4489.1704" y1="2150.582" x2="-4274.3916" y2="1768.3475" gradientTransform="matrix(-0.9657 0.2594 0.2594 0.9657 -2178.7686 891.7207)">
					<stop  offset="0" style="stop-color:#FEBBBA"/>
					<stop  offset="1" style="stop-color:#FF928E"/>
				</linearGradient>
				<path style="fill:url(#SVGID_00000052797909382078833440000013036202233033234563_);" d="M2622.59,1689.61
					c0,0-25.29-37.01-40.01-15.61c-14.72,21.4,25.65,33.57,41.07,36.89L2622.59,1689.61z"/>
			</g>
			<g>
				
					<linearGradient id="SVGID_00000000221011922887076840000006293515669181629571_" gradientUnits="userSpaceOnUse" x1="-5249.0913" y1="1941.9554" x2="-5435.5869" y2="1993.069" gradientTransform="matrix(-0.9988 -0.0494 -0.0494 0.9988 -2596.0017 -55.0328)">
					<stop  offset="0" style="stop-color:#09005D"/>
					<stop  offset="1" style="stop-color:#1A0F91"/>
				</linearGradient>
				<path style="fill:url(#SVGID_00000000221011922887076840000006293515669181629571_);" d="M2590.12,2205.29
					c0.18,0.01,0.35,0.01,0.53,0.01l231.49-0.25c5.72,0,10.36-4.6,10.35-10.26c-0.01-5.66-4.67-10.34-10.37-10.24l-231.49,0.25
					c-5.72,0-10.36,4.6-10.35,10.26C2580.28,2200.54,2584.64,2205.02,2590.12,2205.29z"/>
				
					<linearGradient id="SVGID_00000070100829703239678700000013756831398353388427_" gradientUnits="userSpaceOnUse" x1="-5441.2344" y1="2024.8912" x2="-5572.7837" y2="2163.9307" gradientTransform="matrix(-1 0 0 1 -2637.4707 0)">
					<stop  offset="0" style="stop-color:#09005D"/>
					<stop  offset="1" style="stop-color:#1A0F91"/>
				</linearGradient>
				<path style="fill:url(#SVGID_00000070100829703239678700000013756831398353388427_);" d="M3030.24,1997.33h-192.79
					c-14.22,0-27.17,8.12-33.23,20.85l-89.12,186.99h239.58c9.17,0,17.4-5.54,20.77-13.97l69.11-173.03
					C3048.55,2008.17,3041.1,1997.33,3030.24,1997.33z"/>
				
					<ellipse transform="matrix(0.313 -0.9497 0.9497 0.313 5.9172 4203.7998)" class="st39" cx="2908.88" cy="2097.81" rx="24.45" ry="15.17"/>
			</g>
			
				<linearGradient id="SVGID_00000042735648513900036270000004164068422681702821_" gradientUnits="userSpaceOnUse" x1="2386.5886" y1="2303.3601" x2="2856.144" y2="2106.9272" gradientTransform="matrix(0.9994 -0.0352 0.0352 0.9994 -236.9523 6.4305)">
				<stop  offset="0" style="stop-color:#FEBBBA"/>
				<stop  offset="1" style="stop-color:#FF928E"/>
			</linearGradient>
			<path style="fill:url(#SVGID_00000042735648513900036270000004164068422681702821_);" d="M2490.06,1910.27
				c-35.15,38.06-75.65,202.71-51.75,229.13c21.32,30.99,91.62,71.71,157.12,69.47l96.63-3.4c-42.12-41.71-70.47-51.67-102.71-20.33
				c-26.82-10.36-62.62-52.89-86.17-71.61c-9.25-7.35-11.83-20.35-6.18-30.73c17.08-31.39,38.75-63.81,44.92-94.69
				C2542.2,1952.15,2514.2,1912.01,2490.06,1910.27z"/>
		</g>
		<g>
			
				<linearGradient id="SVGID_00000175283445825969566860000004179610444576690059_" gradientUnits="userSpaceOnUse" x1="3047.0361" y1="1339.3561" x2="3311.9814" y2="1130.4839" gradientTransform="matrix(0.9988 -0.0491 0.0491 0.9988 -118.4621 -65.0812)">
				<stop  offset="0" style="stop-color:#4F52FF"/>
				<stop  offset="1" style="stop-color:#4042E2"/>
			</linearGradient>
			<path style="fill:url(#SVGID_00000175283445825969566860000004179610444576690059_);" d="M3017.18,1050.04
				c0,0,46.91-1.58,48.74,35.74c1.83,37.32-44.42,52.22-44.42,52.22L3017.18,1050.04z"/>
			
				<linearGradient id="SVGID_00000149368032620064040770000008666012166408830852_" gradientUnits="userSpaceOnUse" x1="2545.05" y1="-121.1281" x2="2474.478" y2="269.0927" gradientTransform="matrix(0.9799 0.1997 -0.1997 0.9799 456.1596 438.4906)">
				<stop  offset="0" style="stop-color:#CB236D"/>
				<stop  offset="1" style="stop-color:#4C246D"/>
			</linearGradient>
			<path style="fill:url(#SVGID_00000149368032620064040770000008666012166408830852_);" d="M2896.43,1140.45
				c0,0-46.97,48.48-50.73,59.92c-6.03,18.36,7.28,71.61-14.21,69.74c-21.5-1.87-19.72,4.78-30.33,5.13
				c-10.61,0.35,13.31-84.21,12.46-104.84c-0.85-20.62-7.92-37.88-7.92-37.88L2896.43,1140.45z"/>
			<path class="st39" d="M2996.23,995.5c-33.46-9.93-44.77,39.66-44.77,39.66l5.57,143.55c41.08,76.16,80.73,14.24,85.3-47.04
				C3046.91,1070.39,3029.69,1005.44,2996.23,995.5z"/>
			<path class="st39" d="M2792.56,1159.78c-37.59,39.94-79.48-4.87-69.65-54.9c9.83-50.03,54.75-20.34,54.75-20.34L2792.56,1159.78z
				"/>
			
				<linearGradient id="SVGID_00000176009371824825199870000013967203424558252677_" gradientUnits="userSpaceOnUse" x1="1441.2344" y1="-876.6318" x2="1220.5082" y2="-556.506" gradientTransform="matrix(0.4124 -0.911 -0.911 -0.4124 1055.281 1657.7526)">
				<stop  offset="0" style="stop-color:#FEBBBA"/>
				<stop  offset="1" style="stop-color:#FF928E"/>
			</linearGradient>
			<path style="fill:url(#SVGID_00000176009371824825199870000013967203424558252677_);" d="M2324.31,671.38l5.93,6.57
				c3.41,3.78,5.12,9.52,4.64,15.6l-4.69,59.33c0,0,4.61,3.39,12.5-6.41c7.89-9.8,16.54-1.92,16.54-1.92s-11.62,12.94-29.29,31.52
				c-10.11,10.63-21.68,13.45-29.75,13.92l-7.8-20.06C2297.68,734.65,2308.86,702.04,2324.31,671.38z"/>
			
				<linearGradient id="SVGID_00000166653891975583069610000002448013703019020164_" gradientUnits="userSpaceOnUse" x1="2678.5562" y1="1469.1489" x2="2326.9785" y2="1979.0525" gradientTransform="matrix(0.9779 -0.209 0.209 0.9779 -520.5133 -337.2)">
				<stop  offset="0" style="stop-color:#FEBBBA"/>
				<stop  offset="1" style="stop-color:#FF928E"/>
			</linearGradient>
			<path style="fill:url(#SVGID_00000166653891975583069610000002448013703019020164_);" d="M2295.34,769.88
				c-12.86,23.84-74.03,129.38-78.53,158.92c-4.5,29.54,27.02,73.32,27.02,73.32c-15.28,23.75,58.37-157.88,70.69-213.87
				L2295.34,769.88z"/>
			
				<linearGradient id="SVGID_00000049929539975197373920000006083312622652964535_" gradientUnits="userSpaceOnUse" x1="2646.5564" y1="132.3932" x2="2525.6772" y2="481.5998">
				<stop  offset="0" style="stop-color:#FF928E"/>
				<stop  offset="1" style="stop-color:#FE7062"/>
			</linearGradient>
			<path style="fill:url(#SVGID_00000049929539975197373920000006083312622652964535_);" d="M2335.09,975.46
				c106,45.97,120.96,88.99,120.96,88.99l-91.02,75.38c0,0-91.81-52.47-140.07-171.19c21.27-11.7,31.33-29.93,44.09-43.13
				C2283.25,946.12,2310.36,964.74,2335.09,975.46z"/>
			
				<linearGradient id="SVGID_00000080886438108133567680000014693336719121121428_" gradientUnits="userSpaceOnUse" x1="-2498.9375" y1="-1299.7482" x2="-2347.2065" y2="-1299.7482" gradientTransform="matrix(0.1808 0.9835 -0.9835 0.1808 724.2057 4469.8062)">
				<stop  offset="0" style="stop-color:#09005D"/>
				<stop  offset="1" style="stop-color:#1A0F91"/>
			</linearGradient>
			<path style="fill:url(#SVGID_00000080886438108133567680000014693336719121121428_);" d="M1589.86,1785.92
				c0,0-27.5-11.3-61.19-4.75c-7.94,1.54-13.04,9.36-11.58,17.31l23.6,128.37c1.11,6.01,9.28,7.03,11.83,1.48
				c12.59-27.43,35.68-81.03,41.85-117.87L1589.86,1785.92z"/>
			
				<linearGradient id="SVGID_00000052062620382252885310000004391630988816950686_" gradientUnits="userSpaceOnUse" x1="-5132.6875" y1="-104.6818" x2="-4980.9678" y2="-104.6818" gradientTransform="matrix(-0.5301 0.848 -0.848 -0.5301 -1279.9158 5833.2056)">
				<stop  offset="0" style="stop-color:#09005D"/>
				<stop  offset="1" style="stop-color:#1A0F91"/>
			</linearGradient>
			<path style="fill:url(#SVGID_00000052062620382252885310000004391630988816950686_);" d="M1552.65,1569.1
				c0,0-12.68-26.89-41.96-44.79c-6.9-4.22-15.95-1.89-20.23,4.96l-69.19,110.68c-3.24,5.18,2.1,11.45,7.73,9.07
				c27.8-11.75,81-35.74,110.41-58.76L1552.65,1569.1z"/>
			
				<linearGradient id="SVGID_00000174591994633369310980000001123013013384541312_" gradientUnits="userSpaceOnUse" x1="-1314.8434" y1="-1213.1327" x2="-1275.5952" y2="-1213.1327" gradientTransform="matrix(0.483 0.8756 -0.8756 0.483 1168.1531 3508.3281)">
				<stop  offset="0" style="stop-color:#FEBBBA"/>
				<stop  offset="1" style="stop-color:#FF928E"/>
			</linearGradient>
			<path style="fill:url(#SVGID_00000174591994633369310980000001123013013384541312_);" d="M1613.64,1765.44l-43.69,19.65
				c-4.27,3.65-4.91,10.16-1.19,14.37c2.26,2.56,5.41,5.32,9.74,7.73c4.12,2.29,9.26,1.77,12.93-1.19l55.38-18.49L1613.64,1765.44z"
				/>
			
				<linearGradient id="SVGID_00000104708098725630972810000014034210791749554822_" gradientUnits="userSpaceOnUse" x1="-2772.8604" y1="-1405.4331" x2="-2733.8601" y2="-1405.4331" gradientTransform="matrix(0.2206 0.9754 -0.9754 0.2206 797.7823 4550.7495)">
				<stop  offset="0" style="stop-color:#FEBBBA"/>
				<stop  offset="1" style="stop-color:#FF928E"/>
			</linearGradient>
			<path style="fill:url(#SVGID_00000104708098725630972810000014034210791749554822_);" d="M1573.46,1532.33l-39.28,18
				c-5.12,2.32-7.92,22.83-4.43,26.35c3.32,3.35,8.4,4.27,12.75,2.45l55.85-23.38L1573.46,1532.33z"/>
			
				<linearGradient id="SVGID_00000150792947712447510180000005137225862882912139_" gradientUnits="userSpaceOnUse" x1="2130.1218" y1="776.5482" x2="2009.5576" y2="1180.1746">
				<stop  offset="0" style="stop-color:#09005D"/>
				<stop  offset="1" style="stop-color:#1A0F91"/>
			</linearGradient>
			<path style="fill:url(#SVGID_00000150792947712447510180000005137225862882912139_);" d="M2142.3,1306.65
				c0,0-52.12,11.09-81.19,35.53c-99.67,83.81-499.25,191.97-499.25,191.97s-3.06,48.16,17.92,44.8c0,0,298.37-45.46,441.2-97.16
				c0,0-121.31,136.49-416.01,281.66c0,0,15.9,37.84,28.48,35.98c0,0,629.26-256.76,638.51-354.64L2142.3,1306.65z"/>
			<path class="st4" d="M2015.51,1486.18c-0.81,0-1.6-0.41-2.07-1.14c-0.71-1.14-0.36-2.65,0.78-3.36l79.54-49.86l-17.13-17
				c-0.95-0.95-0.96-2.49-0.02-3.44c0.95-0.95,2.5-0.96,3.44-0.02l21.51,21.33l-84.75,53.12
				C2016.41,1486.06,2015.96,1486.18,2015.51,1486.18z"/>
			
				<linearGradient id="SVGID_00000085962610979954634320000014477114276001854891_" gradientUnits="userSpaceOnUse" x1="3145.7866" y1="38.087" x2="2870.4504" y2="501.4577">
				<stop  offset="0" style="stop-color:#FF928E"/>
				<stop  offset="1" style="stop-color:#FE7062"/>
			</linearGradient>
			<path style="fill:url(#SVGID_00000085962610979954634320000014477114276001854891_);" d="M2557.99,1131.46
				c-39.95-65.59-132.38-110.39-186.75-132.13c-23.82-9.53-51-0.73-64.57,21.04c-39.32,63.12-63.73,170.92-191.04,293.84
				c59.27,40.73,123.67,114.13,156.26,131.29c125.12-102.11,189.29-210.89,189.29-210.89c63.31,107.36,182,79.13,202.28,72.73
				c-3.42-30.48-3.64-60.36-0.7-89.65C2584.32,1187.2,2557.99,1131.46,2557.99,1131.46z"/>
			
				<linearGradient id="SVGID_00000177482453250243011500000011796377347721788557_" gradientUnits="userSpaceOnUse" x1="2295.511" y1="400.1384" x2="2631.3662" y2="120.2586" gradientTransform="matrix(0.9799 0.1997 -0.1997 0.9799 456.1596 438.4906)">
				<stop  offset="0" style="stop-color:#FEBBBA"/>
				<stop  offset="1" style="stop-color:#FF928E"/>
			</linearGradient>
			<path style="fill:url(#SVGID_00000177482453250243011500000011796377347721788557_);" d="M2800.22,1229.85l-10.68-22.55
				c-54.14,22.94-95.41,22.58-126.78,10.39c-2.95,29.29-2.73,59.17,0.7,89.65C2741.28,1295.97,2800.22,1229.85,2800.22,1229.85z"/>
			
				<linearGradient id="SVGID_00000109733789354413781100000010380447101012210577_" gradientUnits="userSpaceOnUse" x1="2217.3879" y1="-97.18" x2="1914.0632" y2="460.1495" gradientTransform="matrix(0.9799 0.1997 -0.1997 0.9799 456.1596 438.4906)">
				<stop  offset="0" style="stop-color:#FEBBBA"/>
				<stop  offset="1" style="stop-color:#FF928E"/>
			</linearGradient>
			<path style="fill:url(#SVGID_00000109733789354413781100000010380447101012210577_);" d="M2469.54,913.85l-65.29,97.52
				c0,0,43.04,44.89,84.02,49.8l41.26-91.24L2469.54,913.85z"/>
			<g>
				
					<linearGradient id="SVGID_00000137132315240568154060000014313335664599704223_" gradientUnits="userSpaceOnUse" x1="2452.6226" y1="4217.5796" x2="2318.5654" y2="4394.9263" gradientTransform="matrix(0.8478 -0.5304 0.5304 0.8478 -1792.8719 -1416.2151)">
					<stop  offset="0" style="stop-color:#FEBBBA"/>
					<stop  offset="1" style="stop-color:#FF928E"/>
				</linearGradient>
				<path style="fill:url(#SVGID_00000137132315240568154060000014313335664599704223_);" d="M2545.36,843.97
					c0.94,1.5,25.8,115.68,25.8,115.68l-65.5,12.81l-39.65-104.72C2466.02,867.74,2529.67,818.88,2545.36,843.97z"/>
				
					<linearGradient id="SVGID_00000052815244758247246770000004693671666747201983_" gradientUnits="userSpaceOnUse" x1="2350.2415" y1="4260.3599" x2="2510.3752" y2="4260.3599" gradientTransform="matrix(0.8478 -0.5304 0.5304 0.8478 -1792.8719 -1416.2151)">
					<stop  offset="0" style="stop-color:#09005D"/>
					<stop  offset="1" style="stop-color:#1A0F91"/>
				</linearGradient>
				<path style="fill:url(#SVGID_00000052815244758247246770000004693671666747201983_);" d="M2489.47,884.62l16.55,56.76
					c0.21,0.73,0.51,1.41,0.91,2.05c2.46,3.94,11.9,16.87,24.54,6.4c11.47-9.5,22.07-18,31.5-19.12c4.23-0.51,8.15,2.28,9.05,6.44
					c2.26,10.38,6.91,33.85,7.84,54.86c0.19,4.26-2.95,7.93-7.18,8.49c-12.75,1.69-39.73,4.51-61.97,1.7
					c-3.01-0.38-5.58-2.35-6.68-5.17c-5.4-13.79-21.99-55.63-28.41-66.58c-6.03-10.27-22.18-10.89-28.98-10.67
					c-2.23,0.07-4.37-0.76-5.96-2.32c-5.63-5.52-16.16-19.39,0.57-34.37c3.5-3.13,3.71-8.49,0.47-11.9
					c-6.45-6.78-13.1-18.53-0.97-31.98c12.32-13.67,27.41-10.54,36.54-6.62c3.69,1.59,7.89,0.22,10.13-3.11
					c1.28-1.9,3.39-3.27,6.9-2.77c4.73,0.67,8.95-3.07,9.13-7.85c0.35-9.17,4.27-20.57,20.45-24.64
					c28.7-7.21,44.78,21.03,45.39,41.46c0.61,20.44-30.95,26.48-49.18,24.09c-13.86-1.82-24.96,11.4-29.49,17.84
					C2489.18,879.65,2488.77,882.23,2489.47,884.62z"/>
				
					<linearGradient id="SVGID_00000049939466689292676910000011611399552435845790_" gradientUnits="userSpaceOnUse" x1="2256.2812" y1="4358.0239" x2="2363.8062" y2="4247.7061" gradientTransform="matrix(0.8478 -0.5304 0.5304 0.8478 -1792.8719 -1416.2151)">
					<stop  offset="0" style="stop-color:#FEBBBA"/>
					<stop  offset="1" style="stop-color:#FF928E"/>
				</linearGradient>
				<path style="fill:url(#SVGID_00000049939466689292676910000011611399552435845790_);" d="M2481.85,951.05
					c0,0-2.59-35.56-17.18-38.11c-14.59-2.55-29.56,8.73-16.06,29.36C2465.4,967.96,2481.85,951.05,2481.85,951.05z"/>
			</g>
			
				<linearGradient id="SVGID_00000061465189603295894350000012611665719598665600_" gradientUnits="userSpaceOnUse" x1="2317.6614" y1="426.7182" x2="2653.5171" y2="146.838" gradientTransform="matrix(0.9799 0.1997 -0.1997 0.9799 456.1596 438.4906)">
				<stop  offset="0" style="stop-color:#FEBBBA"/>
				<stop  offset="1" style="stop-color:#FF928E"/>
			</linearGradient>
			<path style="fill:url(#SVGID_00000061465189603295894350000012611665719598665600_);" d="M2885.74,1196.81l-74.56-5.97l2.32-9.64
				c0,0-33.15,7.42-34.32,33.23l-5.19,40.42c6.52-4.76,26.43-14.52,34.36-13.06l39.42,7.22c16.54,3.03,32.57-7.42,36.47-23.78
				C2886.46,1215.89,2887.65,1205.65,2885.74,1196.81z"/>
			
				<linearGradient id="SVGID_00000176028385432837926000000004750894056994595252_" gradientUnits="userSpaceOnUse" x1="2751.3149" y1="1102.5365" x2="3017.843" y2="1102.5365">
				<stop  offset="0" style="stop-color:#4F52FF"/>
				<stop  offset="1" style="stop-color:#4042E2"/>
			</linearGradient>
			<path style="fill:url(#SVGID_00000176028385432837926000000004750894056994595252_);" d="M2773.96,1085.82
				c0,0,92.53,2.7,201.85-71.87c5.69-3.88,13.58-2.27,17.13,3.63c33.64,55.92,26.49,116.58,17.06,152.86
				c-4.54,17.47-23.16,27.22-40.05,20.83c-41.02-15.52-119.47-39.26-193.28-28.28C2748.84,1158.41,2738.46,1097.61,2773.96,1085.82z
				"/>
			<path class="st39" d="M3100.33,983.52c-1.05,0-2.09-0.33-2.99-1.02c-2.13-1.65-2.52-4.71-0.86-6.84l44.01-56.8
				c1.64-2.14,4.69-2.52,6.84-0.87c2.13,1.65,2.52,4.71,0.86,6.84l-44.01,56.8C3103.23,982.87,3101.78,983.52,3100.33,983.52z"/>
			<path class="st39" d="M3169.65,894.06c-1.05,0-2.09-0.33-2.98-1.02c-2.14-1.65-2.52-4.71-0.87-6.84l23.37-30.18
				c1.64-2.14,4.7-2.52,6.83-0.87c2.14,1.65,2.52,4.71,0.87,6.84l-23.37,30.18C3172.54,893.41,3171.1,894.06,3169.65,894.06z"/>
			<path class="st39" d="M3201.46,1012.48c-0.64,0-1.24-0.48-1.49-1.27c-0.34-1.04,0.06-2.24,0.88-2.66l44.6-23.13
				c0.83-0.43,1.77,0.07,2.11,1.11c0.34,1.04-0.06,2.24-0.88,2.66l-44.6,23.13C3201.87,1012.43,3201.66,1012.48,3201.46,1012.48z"/>
			<path class="st39" d="M3116.49,1049.56c-1.92,0-3.73-1.14-4.51-3.03c-1.02-2.49,0.17-5.33,2.66-6.36l50.49-20.71
				c2.5-1.03,5.33,0.17,6.36,2.66c1.02,2.49-0.17,5.33-2.66,6.36l-50.49,20.71C3117.73,1049.44,3117.1,1049.56,3116.49,1049.56z"/>
			<path class="st39" d="M3167.55,1117.54c-1.85,0-3.37-2.09-3.43-4.73c-0.05-2.69,1.44-4.93,3.33-5.01l76.69-3.17
				c2.1-0.1,3.47,2.05,3.53,4.73c0.05,2.69-1.44,4.93-3.33,5.01l-76.69,3.17C3167.62,1117.54,3167.58,1117.54,3167.55,1117.54z"/>
			<path class="st39" d="M3107.68,1119.32c-2.63,0-4.79-2.09-4.87-4.73c-0.08-2.69,2.04-4.93,4.73-5.01l24.1-0.7
				c3.01-0.09,4.93,2.05,5.01,4.73c0.08,2.69-2.04,4.93-4.73,5.01l-24.1,0.7C3107.78,1119.32,3107.73,1119.32,3107.68,1119.32z"/>
		</g>
	</g>
</g>
</svg>
